<?xml version="1.0" encoding="utf-8"?>
<!-- Generator: Adobe Illustrator 23.1.0, SVG Export Plug-In . SVG Version: 6.00 Build 0)  -->
<svg version="1.1" id="Layer_1" xmlns="http://www.w3.org/2000/svg" xmlns:xlink="http://www.w3.org/1999/xlink" x="0px" y="0px"
	 viewBox="0 0 1080 1080" style="enable-background:new 0 0 1080 1080;" xml:space="preserve">
<style type="text/css">
	.st0{fill:#FFFFFF;}
</style>
<g>
	<g>
		<circle class="st0" cx="540.61" cy="525.06" r="422.76"/>
		<path d="M540.61,949.2c-57.26,0-112.8-11.21-165.1-33.33c-50.51-21.36-95.87-51.94-134.82-90.9
			c-38.95-38.95-69.53-84.31-90.9-134.82c-22.12-52.29-33.33-107.84-33.33-165.1s11.21-112.8,33.33-165.1
			c21.36-50.51,51.94-95.87,90.9-134.82c38.95-38.95,84.31-69.53,134.82-90.9c52.29-22.12,107.84-33.33,165.1-33.33
			s112.8,11.21,165.1,33.33c50.51,21.36,95.87,51.94,134.82,90.9c38.95,38.95,69.53,84.31,90.9,134.82
			c22.12,52.29,33.33,107.84,33.33,165.1s-11.21,112.8-33.33,165.1c-21.36,50.51-51.94,95.87-90.9,134.82s-84.31,69.53-134.82,90.9
			C653.42,937.98,597.87,949.2,540.61,949.2z M540.61,103.68c-232.35,0-421.37,189.03-421.37,421.37s189.03,421.37,421.37,421.37
			S961.98,757.4,961.98,525.06S772.96,103.68,540.61,103.68z"/>
	</g>
	<g>
		<path d="M540.61,852.69c-44.23,0-87.14-8.66-127.53-25.75c-39.01-16.5-74.05-40.12-104.14-70.21
			c-30.09-30.09-53.71-65.13-70.21-104.14c-17.09-40.39-25.75-83.3-25.75-127.53s8.66-87.14,25.75-127.53
			c16.5-39.01,40.12-74.05,70.21-104.14s65.13-53.71,104.14-70.21c40.39-17.09,83.3-25.75,127.53-25.75s87.14,8.66,127.53,25.75
			c39.01,16.5,74.05,40.12,104.14,70.21c30.09,30.09,53.71,65.13,70.21,104.14c17.09,40.39,25.75,83.3,25.75,127.53
			s-8.66,87.14-25.75,127.53c-16.5,39.01-40.12,74.05-70.21,104.14c-30.09,30.09-65.13,53.71-104.14,70.21
			C627.75,844.02,584.84,852.69,540.61,852.69z M540.61,203.89c-177.09,0-321.17,144.08-321.17,321.17s144.08,321.17,321.17,321.17
			s321.17-144.08,321.17-321.17S717.7,203.89,540.61,203.89z"/>
	</g>
	<g>
		<circle cx="540.61" cy="525.06" r="304.59"/>
	</g>
	<g>
		<g>
			<path d="M204.07,653.93c1.36-0.8,2.43-1.63,3.22-2.47c0.79-0.84,1.43-1.86,1.91-3.07c0.81-1.93,1.19-4.29,1.15-7.07
				c-0.04-2.78-0.55-5.69-1.52-8.74c-1.58-4.96-3.77-8.53-6.57-10.71c-2.8-2.18-5.81-2.76-9.03-1.74c-1.86,0.59-3.2,1.65-4.01,3.19
				c-0.82,1.53-1.28,3.9-1.38,7.09l-0.39,16.05c-0.27,9.71-4.01,15.71-11.22,18c-5.47,1.74-10.37,1.08-14.69-1.99
				c-4.32-3.06-7.67-8.32-10.04-15.76c-0.47-1.47-0.86-2.85-1.18-4.14c-0.32-1.29-0.58-2.62-0.8-3.98
				c-0.21-1.36-0.37-2.83-0.47-4.41c-0.1-1.58-0.16-3.39-0.19-5.43c1.92-0.61,3.89-1.25,5.91-1.92c2.02-0.67,4-1.38,5.94-2.12
				l0.54,1.69c-2.51,1.48-3.97,3.62-4.38,6.42c-0.41,2.8,0.11,6.48,1.56,11.05c1.52,4.79,3.53,8.27,6.01,10.43
				c2.49,2.16,5.2,2.77,8.13,1.84c0.96-0.31,1.75-0.7,2.37-1.17c0.62-0.48,1.14-1.14,1.56-1.99c0.42-0.85,0.7-1.93,0.87-3.26
				c0.17-1.33,0.28-2.99,0.32-4.99l0.4-16.89c0.04-1.63,0.24-3.21,0.59-4.75c0.35-1.54,0.81-2.87,1.39-3.98
				c1.79-3.55,4.91-6.03,9.37-7.45c2.54-0.81,5.12-0.99,7.74-0.55c2.62,0.44,5.15,1.45,7.58,3.04c4.88,3.23,8.46,8.45,10.75,15.67
				c1.24,3.89,2.04,7.49,2.4,10.78c0.37,3.3,0.28,6.83-0.26,10.6c-3.49,1.11-7.84,2.59-13.03,4.42L204.07,653.93z"/>
			<path d="M202.33,598.65c-0.53-1.84-1.04-3.31-1.54-4.41c-0.5-1.1-1.08-1.95-1.75-2.55c-0.67-0.6-1.5-1.02-2.48-1.25
				c-0.98-0.23-2.19-0.38-3.63-0.44c-0.65,0.02-1.67,0.08-3.07,0.16c-1.39,0.09-2.97,0.21-4.74,0.37c-1.77,0.16-3.67,0.34-5.7,0.54
				c-2.03,0.2-4.02,0.42-5.95,0.66l-1.15,0.14c-1.76,0.22-3.84,0.5-6.24,0.83c-2.4,0.33-4.76,0.69-7.07,1.07
				c-2.31,0.38-4.42,0.75-6.34,1.11c-1.92,0.36-3.28,0.68-4.08,0.96c-2.23,0.76-3.63,1.93-4.21,3.53c-0.57,1.59-0.81,3.75-0.7,6.48
				l-1.85,0.23c-0.14-1.11-0.27-2.38-0.39-3.8c-0.12-1.42-0.22-2.83-0.31-4.25c-0.09-1.42-0.18-2.76-0.28-4.03
				c-0.1-1.27-0.21-2.34-0.32-3.22c-0.11-0.88-0.29-2.3-0.54-4.27c-0.25-1.97-0.54-4.19-0.89-6.69c-0.34-2.49-0.72-5.13-1.13-7.91
				c-0.41-2.78-0.79-5.47-1.15-8.08c-0.36-2.61-0.7-4.99-1.04-7.16c-0.33-2.16-0.61-3.89-0.83-5.17c0.76-0.1,1.76-0.19,3-0.29
				c1.24-0.1,2.07-0.17,2.48-0.22l1.32-0.17c1.12-0.14,2.18-0.3,3.2-0.49c1.02-0.19,2.13-0.45,3.35-0.78l0.23,1.85
				c-1.62,0.38-2.87,0.88-3.75,1.5c-0.87,0.62-1.47,1.74-1.77,3.35c-0.3,1.62-0.33,3.9-0.08,6.85c0.25,2.95,0.7,6.98,1.34,12.08
				c0.29,2.29,0.58,4.22,0.86,5.79s0.64,3.05,1.05,4.43c1.77-0.16,3.57-0.33,5.39-0.5c1.83-0.17,3.59-0.35,5.3-0.53
				c1.71-0.18,3.3-0.35,4.77-0.51c1.47-0.16,2.74-0.3,3.79-0.43c-0.12-1.42-0.25-2.92-0.39-4.51c-0.14-1.59-0.29-3.17-0.46-4.73
				c-0.17-1.56-0.32-3.02-0.46-4.37c-0.14-1.35-0.27-2.5-0.39-3.44c-0.4-3.17-0.75-5.64-1.07-7.42c-0.31-1.78-0.73-3.1-1.26-3.96
				c-0.52-0.86-1.23-1.39-2.13-1.61c-0.89-0.22-2.12-0.34-3.67-0.39l-0.23-1.85c0.71-0.03,1.57-0.08,2.58-0.15
				c1.01-0.07,1.99-0.15,2.97-0.24c0.97-0.09,1.84-0.17,2.61-0.24c0.77-0.07,1.3-0.12,1.59-0.16c0.35-0.04,0.87-0.12,1.54-0.24
				c0.67-0.11,1.46-0.24,2.37-0.39c0.91-0.14,1.86-0.31,2.84-0.49c0.99-0.18,1.95-0.36,2.88-0.54l0.23,1.85
				c-1.37,0.47-2.44,0.86-3.21,1.16c-0.77,0.31-1.35,0.72-1.77,1.25c-0.62,0.79-0.88,2.15-0.78,4.08c0.09,1.93,0.37,4.74,0.84,8.44
				c0.1,0.82,0.24,1.92,0.42,3.3c0.17,1.38,0.38,2.87,0.61,4.48c0.23,1.61,0.48,3.23,0.75,4.87c0.27,1.64,0.51,3.1,0.73,4.38
				c1.17-0.15,2.64-0.35,4.4-0.6c1.76-0.25,3.62-0.51,5.58-0.79c1.96-0.28,3.94-0.57,5.93-0.88c1.99-0.31,3.8-0.6,5.44-0.86
				c0.05-3.41-0.02-6.53-0.2-9.37c-0.18-2.84-0.47-5.84-0.87-9.01c-0.49-3.87-1.06-7.1-1.71-9.67c-0.65-2.57-1.53-4.26-2.65-5.08
				c-0.59-0.46-1.33-0.73-2.2-0.8c-0.87-0.07-1.82-0.1-2.83-0.09l-0.23-1.85c2.48-0.19,4.99-0.42,7.52-0.68
				c2.53-0.26,4.65-0.5,6.35-0.71c0.14,2.07,0.35,4.56,0.63,7.48s0.58,6.05,0.92,9.41c0.33,3.36,0.71,6.84,1.14,10.46
				c0.43,3.61,0.85,7.12,1.28,10.53c0.55,4.34,1.07,7.91,1.57,10.71c0.5,2.8,1.02,5.36,1.55,7.68L202.33,598.65z"/>
			<path d="M195.44,519.24c-0.03-2.37-0.22-4.28-0.57-5.73c-0.35-1.44-1.04-2.58-2.05-3.42c-1.01-0.83-2.43-1.44-4.24-1.83
				c-1.81-0.38-4.23-0.67-7.24-0.86l-39.32-2.5c-0.36,5.67-0.58,10.13-0.67,13.38c-0.09,3.26,0.09,5.58,0.53,6.97
				c0.4,1.21,1.1,2.04,2.11,2.49c1.01,0.45,2.25,0.78,3.72,0.99l-0.12,1.86c-2.29-0.26-4.71-0.49-7.25-0.68
				c-2.54-0.19-4.75-0.35-6.64-0.47c0.63-6.24,1.15-11.83,1.55-16.75c0.4-4.92,0.73-9.33,0.97-13.23c0.12-1.83,0.23-3.9,0.35-6.2
				c0.12-2.3,0.24-4.75,0.38-7.36c0.14-2.6,0.25-5.29,0.33-8.07c0.09-2.78,0.16-5.56,0.22-8.34c2.07,0.13,4.33,0.26,6.78,0.39
				c2.45,0.13,4.83,0.2,7.14,0.23l-0.12,1.86c-1.49,0.14-2.8,0.42-3.92,0.82c-1.12,0.4-1.89,1.01-2.29,1.81
				c-0.27,0.58-0.51,1.29-0.71,2.13c-0.2,0.85-0.4,2.02-0.58,3.52c-0.18,1.5-0.36,3.42-0.54,5.74c-0.18,2.33-0.38,5.3-0.61,8.9
				l39.32,2.5c3.01,0.19,5.44,0.21,7.29,0.06c1.85-0.15,3.33-0.57,4.44-1.27c1.11-0.7,1.93-1.74,2.47-3.13
				c0.53-1.39,0.96-3.26,1.29-5.61l1.86,0.12c-0.42,2.82-0.77,5.43-1.08,7.84c-0.3,2.41-0.53,4.86-0.69,7.34
				c-0.17,2.72-0.28,5.57-0.32,8.56c-0.04,2.99-0.02,5.68,0.07,8.05L195.44,519.24z"/>
			<path d="M200.02,469.26c0.06-1.44,0.06-2.74,0-3.9c-0.06-1.16-0.29-2.21-0.7-3.14c-0.41-0.93-1.08-1.75-2.02-2.46
				c-0.94-0.71-2.27-1.31-3.98-1.79c-1.26-0.32-2.84-0.73-4.73-1.22c-1.89-0.49-3.84-0.97-5.86-1.46c-2.01-0.48-3.94-0.93-5.79-1.35
				c-1.85-0.42-3.35-0.75-4.51-0.99c-2.95-0.62-5.75-1.18-8.4-1.67c-2.65-0.49-5.04-0.89-7.19-1.19c-2.14-0.3-3.97-0.52-5.48-0.65
				c-1.51-0.14-2.58-0.15-3.21-0.04c-1.45,0.3-2.57,0.96-3.36,1.97c-0.79,1.01-1.63,2.79-2.52,5.32l-1.82-0.38
				c0.63-2.41,1.29-4.9,1.98-7.47c0.69-2.57,1.2-4.64,1.53-6.21c0.32-1.5,0.66-3.52,1.04-6.04c0.38-2.52,0.8-5.18,1.27-7.99
				l1.82,0.38c-0.11,1.67-0.11,3.05,0,4.12c0.11,1.08,0.33,1.97,0.66,2.68c0.34,0.71,0.82,1.28,1.45,1.71
				c0.63,0.44,1.4,0.81,2.3,1.12c1.24,0.44,2.82,0.91,4.74,1.4c1.92,0.49,3.95,1,6.08,1.5c2.13,0.51,4.24,0.98,6.32,1.42
				c2.08,0.44,3.91,0.82,5.47,1.15l2.95,0.62c3.82,0.8,6.95,1.44,9.39,1.92c2.44,0.48,4.42,0.82,5.95,1.02
				c1.53,0.2,2.73,0.3,3.61,0.3c0.88,0,1.66-0.07,2.36-0.23c1.44-0.24,2.68-0.93,3.7-2.08c1.03-1.14,2.05-3,3.07-5.57l1.82,0.38
				c-0.5,1.53-0.93,2.87-1.3,4.03c-0.36,1.16-0.68,2.29-0.94,3.39c-0.26,1.09-0.52,2.2-0.79,3.33c-0.27,1.12-0.54,2.38-0.84,3.77
				c-0.58,2.78-1.05,5.3-1.4,7.55c-0.35,2.25-0.64,4.63-0.86,7.12L200.02,469.26z"/>
			<path d="M206.3,434.67c0.54-2.26,0.8-4.23,0.8-5.91c0-1.67-0.7-3.19-2.09-4.53c-0.47-0.43-1.4-0.98-2.79-1.67
				c-1.39-0.68-3.04-1.44-4.97-2.29c-1.92-0.85-3.98-1.72-6.18-2.61c-2.19-0.89-4.34-1.73-6.45-2.52l-2.24-0.84
				c-2.66-1-5.27-1.95-7.84-2.85c-2.57-0.9-4.95-1.71-7.15-2.41c-2.2-0.7-4.11-1.26-5.72-1.68s-2.8-0.61-3.57-0.59
				c-1.54,0.05-2.78,0.58-3.73,1.59c-0.95,1-2.06,2.78-3.34,5.33l-1.74-0.66c0.56-1.31,1.12-2.61,1.71-3.91
				c0.58-1.3,1.14-2.56,1.66-3.78c0.53-1.23,1-2.36,1.42-3.4c0.42-1.04,0.78-1.95,1.07-2.73c0.27-0.72,0.67-1.86,1.2-3.44
				c0.53-1.57,1.29-3.8,2.28-6.68c0.99-2.88,2.27-6.49,3.84-10.83c1.57-4.34,3.52-9.61,5.86-15.81c1.07,0.53,2.14,0.99,3.22,1.4
				c1.08,0.41,2.09,0.79,3.03,1.14l0.66,0.25c0.89,0.33,1.84,0.66,2.86,0.98c1.02,0.32,2.18,0.67,3.5,1.03l-0.66,1.74
				c-1.59-0.47-2.92-0.69-3.98-0.64c-1.06,0.04-2.02,0.49-2.87,1.34c-0.85,0.85-1.71,2.19-2.55,4.02c-0.85,1.83-1.86,4.32-3.05,7.48
				c-0.46,1.22-1.19,3.25-2.2,6.09c-1.01,2.84-2.06,5.99-3.17,9.43c1.14,0.49,2.44,1.04,3.88,1.65s2.97,1.23,4.56,1.86
				c1.6,0.63,3.19,1.26,4.79,1.9c1.6,0.63,3.09,1.21,4.47,1.73c0.49-1.14,1.04-2.44,1.65-3.88c0.61-1.45,1.2-2.88,1.77-4.31
				c0.57-1.43,1.1-2.75,1.58-3.95c0.49-1.21,0.85-2.14,1.1-2.81c1.06-2.82,1.8-5.03,2.2-6.61c0.41-1.59,0.4-2.83-0.01-3.75
				c-0.28-0.61-0.74-1.15-1.38-1.61c-0.65-0.46-1.61-1.09-2.89-1.89l0.66-1.74c1.56,0.72,2.94,1.31,4.12,1.79
				c1.18,0.48,2.35,0.93,3.51,1.37l3.41,1.28c1.27,0.48,2.61,0.97,4,1.46c1.4,0.49,3,1.02,4.81,1.57l-0.66,1.74
				c-1.65-0.49-3.02-0.79-4.12-0.89c-1.1-0.1-2.06,0.16-2.89,0.76c-0.83,0.61-1.6,1.58-2.33,2.92c-0.72,1.34-1.54,3.2-2.43,5.58
				c-0.23,0.61-0.56,1.54-1.01,2.8c-0.44,1.26-0.92,2.62-1.45,4.1c-0.53,1.48-1.05,2.99-1.56,4.53c-0.52,1.54-0.97,2.91-1.35,4.09
				c4.23,1.53,7.59,2.73,10.07,3.6c2.49,0.87,4.45,1.52,5.91,1.94c1.45,0.42,2.59,0.69,3.4,0.8c0.81,0.11,1.68,0.19,2.62,0.23
				c1.18,0.06,2.44-0.51,3.77-1.71c1.34-1.2,2.61-3,3.83-5.39l1.74,0.66c-1.1,2.24-2.21,4.67-3.35,7.27
				c-1.14,2.61-2.15,5.07-3.02,7.4c-0.4,1.05-0.81,2.21-1.26,3.46c-0.44,1.26-0.85,2.52-1.24,3.8c-0.39,1.28-0.75,2.51-1.11,3.71
				c-0.35,1.19-0.64,2.26-0.87,3.18L206.3,434.67z"/>
			<path d="M228.9,376.98c0.45-1.37,0.81-2.61,1.07-3.75c0.26-1.13,0.33-2.2,0.19-3.21c-0.14-1.01-0.56-1.98-1.27-2.93
				c-0.71-0.94-1.82-1.88-3.33-2.81c-1.12-0.66-2.53-1.48-4.21-2.47c-1.69-0.99-3.43-1.99-5.23-3.01c-1.8-1.02-3.53-1.98-5.2-2.89
				c-1.66-0.91-3.01-1.64-4.06-2.19c-2.67-1.41-5.21-2.71-7.62-3.92c-2.41-1.2-4.6-2.24-6.58-3.12c-1.98-0.88-3.68-1.59-5.09-2.14
				c-1.42-0.55-2.44-0.85-3.08-0.92c-1.48-0.11-2.74,0.21-3.77,0.97c-1.04,0.76-2.33,2.23-3.89,4.42l-1.65-0.87
				c1.27-2.14,2.58-4.36,3.96-6.64c1.37-2.29,2.43-4.13,3.18-5.55c0.72-1.36,1.6-3.2,2.66-5.52c1.06-2.32,2.2-4.76,3.42-7.33
				l1.65,0.87c-0.56,1.58-0.94,2.9-1.14,3.96c-0.19,1.07-0.23,1.99-0.1,2.76c0.13,0.77,0.44,1.45,0.93,2.04
				c0.49,0.59,1.13,1.16,1.91,1.71c1.07,0.76,2.46,1.65,4.17,2.65c1.71,1,3.52,2.04,5.43,3.12c1.91,1.07,3.8,2.11,5.69,3.1
				c1.88,0.99,3.53,1.86,4.95,2.61l2.67,1.41c3.45,1.82,6.29,3.3,8.5,4.43c2.21,1.13,4.03,2.01,5.44,2.62
				c1.42,0.61,2.54,1.04,3.39,1.28c0.84,0.24,1.62,0.39,2.33,0.43c1.45,0.16,2.83-0.16,4.13-0.98c1.3-0.82,2.8-2.32,4.48-4.51
				l1.65,0.87c-0.9,1.33-1.69,2.51-2.36,3.52c-0.67,1.02-1.28,2.02-1.83,3c-0.55,0.98-1.11,1.97-1.67,2.98
				c-0.56,1.01-1.18,2.14-1.84,3.39c-1.33,2.51-2.47,4.8-3.42,6.87c-0.96,2.07-1.89,4.27-2.78,6.61L228.9,376.98z"/>
			<path d="M241.81,348.03c0.64-1.22,1.03-2.51,1.17-3.86c0.14-1.35-0.05-3.09-0.57-5.24c-0.52-2.15-1.42-4.85-2.72-8.12
				c-1.3-3.27-3.08-7.45-5.36-12.55l-17.29-38.85l2.27-2.96l53.74,8.21c1.38,0.24,2.87,0.47,4.46,0.68c1.59,0.21,3.03,0.3,4.34,0.25
				c2.65-0.05,4.8-0.4,6.44-1.04c1.65-0.64,2.92-1.36,3.83-2.15l1.48,1.13c-0.66,0.76-1.42,1.63-2.28,2.61
				c-0.86,0.98-1.73,1.96-2.59,2.94c-0.86,0.98-1.65,1.89-2.36,2.72c-0.71,0.83-1.25,1.48-1.61,1.95c-0.4,0.52-0.91,1.21-1.53,2.07
				c-0.62,0.86-1.28,1.81-1.96,2.85c-0.69,1.04-1.39,2.1-2.11,3.19c-0.72,1.09-1.36,2.09-1.91,3.01l-1.48-1.13
				c1.53-2.18,2.43-3.82,2.71-4.91c0.28-1.09-0.03-1.98-0.92-2.66c-0.28-0.22-0.85-0.47-1.71-0.75c-0.86-0.29-1.86-0.57-2.99-0.84
				c-1.13-0.27-2.36-0.56-3.69-0.87c-1.33-0.31-2.64-0.59-3.94-0.84c-1.64,1.95-3.43,4.13-5.37,6.56c-1.94,2.43-3.93,4.98-5.98,7.66
				c-1.94,2.54-3.89,5.12-5.84,7.77c-1.95,2.64-3.58,4.91-4.89,6.82c3.04,6.06,5.12,9.51,6.25,10.38c0.99,0.76,2.03,0.9,3.13,0.44
				c1.1-0.46,2.36-1.57,3.77-3.32l1.48,1.13c-0.81,0.87-1.63,1.76-2.43,2.66c-0.81,0.91-1.58,1.77-2.32,2.58
				c-0.74,0.82-1.38,1.55-1.92,2.22c-0.55,0.66-0.94,1.16-1.2,1.49c-0.68,0.89-1.61,2.23-2.79,4.01c-1.18,1.78-2.45,3.75-3.81,5.92
				L241.81,348.03z M251.95,299.79c1.4-1.83,2.55-3.37,3.44-4.63c0.89-1.26,1.64-2.43,2.26-3.53l-29.97-4.52l12.37,27.48
				c1.08-1.11,2.14-2.31,3.2-3.59c1.06-1.28,2.16-2.67,3.31-4.17L251.95,299.79z"/>
			<path d="M275.44,234.53l6.47,7.89c1.8,2.19,3.64,4.38,5.5,6.56c1.87,2.18,3.65,4.24,5.35,6.17c1.7,1.93,3.28,3.67,4.72,5.19
				c1.45,1.53,2.67,2.76,3.67,3.7c1.07,1.03,2.08,1.79,3.02,2.28c0.94,0.49,1.92,0.74,2.95,0.73c1.03,0,2.19-0.27,3.48-0.79
				c1.29-0.52,2.85-1.31,4.68-2.35l1.18,1.44c-0.9,0.58-1.88,1.26-2.94,2.01c-1.06,0.76-2.14,1.52-3.22,2.3
				c-1.08,0.78-2.09,1.53-3.03,2.26c-0.93,0.73-1.7,1.34-2.29,1.82c-0.59,0.49-1.33,1.11-2.2,1.86c-0.87,0.76-1.77,1.57-2.7,2.45
				c-0.93,0.88-1.87,1.76-2.82,2.65c-0.95,0.9-1.8,1.73-2.55,2.49l-1.18-1.44c1.24-1.48,2.15-2.81,2.73-4.02
				c0.58-1.2,0.85-2.4,0.79-3.58c-0.05-1.18-0.43-2.41-1.12-3.67c-0.69-1.27-1.72-2.72-3.07-4.37l-27.48-33.47
				c-1.37-0.18-2.87,0.08-4.49,0.76c-1.62,0.68-3.36,1.67-5.21,2.95l-1.18-1.44c0.72-0.43,1.46-0.93,2.23-1.48
				c0.77-0.55,1.5-1.08,2.2-1.58c0.7-0.5,1.29-0.94,1.77-1.34c0.48-0.39,0.79-0.65,0.93-0.76c0.14-0.11,0.43-0.36,0.89-0.73
				c0.46-0.38,0.99-0.85,1.59-1.42c0.6-0.57,1.26-1.19,1.98-1.85c0.72-0.66,1.4-1.34,2.06-2.04l60.41,12.05
				c-1.28-1.55-2.94-3.58-4.98-6.07c-2.05-2.49-4.17-5.05-6.37-7.69c-2.2-2.63-4.31-5.15-6.32-7.56c-2.01-2.4-3.64-4.32-4.89-5.74
				c-1.29-1.47-2.45-2.62-3.51-3.43c-1.06-0.82-2.12-1.3-3.2-1.45c-1.08-0.15-2.23,0.03-3.46,0.54c-1.23,0.51-2.66,1.36-4.29,2.54
				l-1.18-1.44c1.53-1.03,3.25-2.27,5.16-3.72c1.91-1.45,3.68-2.85,5.33-4.21c1.6-1.31,3.32-2.78,5.16-4.41
				c1.84-1.63,3.39-3.07,4.65-4.33l1.29,1.58c-1.37,1.51-2.31,2.78-2.83,3.82c-0.52,1.04-0.75,2.03-0.67,2.96
				c0.01,0.76,0.18,1.53,0.53,2.32c0.34,0.79,0.92,1.73,1.74,2.82c0.85,1.13,1.96,2.6,3.32,4.39c1.36,1.79,2.93,3.83,4.73,6.11
				c1.79,2.28,3.76,4.77,5.92,7.49c2.15,2.71,4.45,5.56,6.88,8.53l13.74,16.73l-2.67,2.2L275.44,234.53z"/>
			<path d="M359.69,221c1.42-0.85,2.87-1.07,4.35-0.68c1.48,0.4,2.64,1.31,3.48,2.73c0.82,1.37,1.05,2.8,0.69,4.29
				c-0.36,1.49-1.25,2.65-2.67,3.5c-1.42,0.85-2.9,1.09-4.42,0.72c-1.53-0.37-2.7-1.24-3.51-2.61c-0.85-1.42-1.07-2.89-0.66-4.41
				C357.35,223.03,358.26,221.85,359.69,221z"/>
			<path d="M376.94,204c0.94,1.27,1.87,2.25,2.79,2.94c0.92,0.7,2,1.22,3.26,1.58c2.01,0.61,4.39,0.74,7.15,0.4
				c2.76-0.34,5.6-1.15,8.53-2.43c4.77-2.09,8.09-4.64,9.96-7.66c1.87-3.02,2.14-6.07,0.78-9.16c-0.78-1.79-1.98-3.01-3.59-3.66
				c-1.61-0.65-4.01-0.86-7.2-0.62l-16,1.3c-9.68,0.75-16.04-2.34-19.08-9.27c-2.3-5.26-2.16-10.2,0.43-14.82
				c2.59-4.62,7.46-8.5,14.62-11.64c1.41-0.62,2.74-1.15,4-1.61c1.25-0.45,2.55-0.86,3.88-1.21c1.33-0.36,2.77-0.67,4.34-0.93
				c1.56-0.26,3.36-0.52,5.38-0.76c0.81,1.84,1.65,3.73,2.53,5.67c0.88,1.94,1.79,3.83,2.73,5.68l-1.63,0.71
				c-1.74-2.34-4.02-3.57-6.85-3.68c-2.83-0.12-6.44,0.79-10.83,2.71c-4.6,2.02-7.85,4.38-9.74,7.08c-1.88,2.7-2.21,5.46-0.97,8.27
				c0.4,0.92,0.88,1.67,1.42,2.24c0.54,0.57,1.25,1.02,2.14,1.34c0.88,0.32,1.99,0.5,3.33,0.53c1.34,0.03,3-0.04,5-0.2l16.84-1.37
				c1.62-0.13,3.22-0.1,4.78,0.08c1.57,0.19,2.93,0.51,4.1,0.96c3.72,1.41,6.51,4.25,8.39,8.53c1.07,2.44,1.52,4.99,1.36,7.64
				c-0.16,2.65-0.9,5.27-2.23,7.85c-2.7,5.19-7.52,9.3-14.45,12.34c-3.74,1.64-7.23,2.81-10.47,3.52c-3.24,0.71-6.77,1-10.57,0.85
				c-1.47-3.36-3.39-7.52-5.76-12.49L376.94,204z"/>
			<path d="M482.01,170c0.41,2.21,0.88,4.53,1.41,6.96c0.52,2.43,1,4.51,1.41,6.23c-2.12,1.3-3.97,2.39-5.56,3.26
				c-1.59,0.87-3.03,1.61-4.34,2.23c-1.31,0.62-2.53,1.13-3.65,1.52c-1.12,0.39-2.29,0.73-3.5,1.03c-5.12,1.23-9.98,1.58-14.58,1.05
				c-4.6-0.53-8.77-1.86-12.5-3.97c-3.74-2.11-6.93-4.95-9.58-8.51c-2.65-3.56-4.56-7.75-5.73-12.58
				c-2.14-8.85-0.67-17.27,4.41-25.25c2.25-3.52,5.3-6.59,9.15-9.19c3.85-2.6,8.1-4.46,12.76-5.59c2.42-0.58,5.13-1.07,8.14-1.46
				c3.01-0.39,6.09-0.6,9.25-0.63c0.48,2.01,1.04,4.13,1.67,6.35c0.63,2.22,1.27,4.47,1.95,6.74l-1.81,0.44
				c-1.69-2.7-3.77-4.41-6.26-5.15c-2.49-0.74-5.78-0.62-9.86,0.37c-4.03,0.97-7.37,2.37-10.03,4.2c-2.66,1.83-4.93,4.28-6.81,7.35
				c-3.58,6.1-4.53,12.65-2.83,19.67c0.9,3.74,2.36,7.01,4.37,9.81c2.01,2.8,4.41,5.05,7.2,6.75c2.78,1.7,5.88,2.81,9.29,3.33
				c3.41,0.52,6.96,0.33,10.64-0.56c8.51-2.05,13.05-6.71,13.61-13.96L482.01,170z"/>
			<path d="M493.96,183.08c1.39-0.37,2.63-0.75,3.72-1.15c1.09-0.4,2.02-0.93,2.79-1.6c0.77-0.67,1.35-1.55,1.76-2.66
				s0.58-2.55,0.53-4.33c-0.06-1.3-0.14-2.93-0.23-4.88c-0.09-1.95-0.21-3.96-0.34-6.03c-0.13-2.07-0.27-4.04-0.42-5.93
				c-0.15-1.89-0.27-3.42-0.38-4.6c-0.28-3-0.58-5.84-0.88-8.52c-0.31-2.67-0.64-5.08-0.99-7.22c-0.35-2.14-0.68-3.95-1-5.43
				c-0.32-1.49-0.62-2.51-0.91-3.08c-0.72-1.3-1.67-2.18-2.87-2.63c-1.2-0.45-3.14-0.73-5.83-0.84l-0.17-1.86
				c2.48-0.11,5.06-0.22,7.72-0.32c2.66-0.1,4.79-0.22,6.38-0.37c1.53-0.14,3.56-0.41,6.08-0.79c2.52-0.38,5.19-0.77,8-1.15
				l0.17,1.86c-1.63,0.39-2.94,0.8-3.94,1.21c-1,0.42-1.79,0.9-2.36,1.42c-0.58,0.53-0.98,1.16-1.2,1.89
				c-0.23,0.73-0.36,1.58-0.39,2.53c-0.06,1.31-0.04,2.96,0.06,4.94c0.1,1.98,0.22,4.07,0.36,6.25c0.14,2.19,0.32,4.34,0.51,6.46
				c0.2,2.12,0.37,3.98,0.52,5.57l0.28,3c0.36,3.89,0.67,7.07,0.93,9.54c0.26,2.47,0.52,4.47,0.78,5.99
				c0.26,1.52,0.52,2.7,0.78,3.54c0.26,0.84,0.56,1.57,0.92,2.19c0.66,1.31,1.68,2.28,3.08,2.92c1.4,0.64,3.47,1.07,6.23,1.29
				l0.17,1.85c-1.61-0.03-3.02-0.04-4.24-0.05c-1.22,0-2.39,0.03-3.51,0.11c-1.12,0.08-2.26,0.15-3.41,0.23
				c-1.15,0.08-2.43,0.18-3.85,0.31c-2.83,0.26-5.37,0.56-7.63,0.89c-2.26,0.33-4.61,0.76-7.06,1.28L493.96,183.08z"/>
			<path d="M529.07,179c1.91-0.19,3.45-0.43,4.62-0.71c1.17-0.29,2.11-0.71,2.83-1.26c0.71-0.55,1.27-1.29,1.68-2.21
				c0.41-0.92,0.77-2.09,1.09-3.49c0.1-0.65,0.23-1.66,0.4-3.04c0.17-1.38,0.33-2.96,0.49-4.73c0.16-1.77,0.33-3.67,0.5-5.7
				c0.17-2.03,0.32-4.03,0.43-5.97l0.07-1.15c0.1-1.77,0.21-3.87,0.32-6.29c0.11-2.42,0.18-4.8,0.23-7.14
				c0.04-2.34,0.06-4.48,0.05-6.44c-0.01-1.96-0.08-3.35-0.2-4.19c-0.34-2.33-1.24-3.92-2.71-4.78c-1.46-0.85-3.55-1.47-6.25-1.87
				l0.11-1.86c1.12,0.06,2.39,0.17,3.8,0.31c1.41,0.14,2.83,0.29,4.24,0.46c1.41,0.17,2.75,0.32,4.02,0.45
				c1.27,0.13,2.34,0.22,3.23,0.27c0.89,0.05,2.32,0.13,4.3,0.24c1.98,0.11,4.22,0.23,6.74,0.34c2.51,0.11,5.17,0.22,7.98,0.32
				c2.81,0.1,5.53,0.21,8.16,0.33c2.63,0.12,5.04,0.21,7.23,0.28c2.19,0.07,3.93,0.11,5.24,0.12c-0.04,0.77-0.13,1.77-0.26,3.01
				c-0.13,1.24-0.21,2.06-0.23,2.48l-0.07,1.33c-0.06,1.12-0.1,2.2-0.1,3.24c0,1.04,0.05,2.18,0.16,3.43l-1.86-0.11
				c-0.08-1.66-0.35-2.98-0.8-3.96c-0.45-0.97-1.44-1.76-2.98-2.35c-1.54-0.59-3.78-1.03-6.72-1.32c-2.95-0.29-6.99-0.58-12.13-0.87
				c-2.3-0.13-4.26-0.2-5.85-0.2c-1.6,0-3.12,0.08-4.55,0.23c-0.16,1.77-0.32,3.57-0.48,5.39c-0.16,1.83-0.31,3.6-0.44,5.31
				c-0.13,1.71-0.25,3.3-0.36,4.78c-0.11,1.48-0.2,2.74-0.26,3.81c1.41,0.14,2.92,0.29,4.51,0.43c1.59,0.15,3.17,0.28,4.73,0.4
				c1.56,0.12,3.02,0.23,4.38,0.34c1.36,0.11,2.51,0.19,3.45,0.24c3.19,0.18,5.69,0.28,7.49,0.29c1.81,0.01,3.18-0.16,4.12-0.52
				c0.94-0.36,1.59-0.96,1.97-1.8c0.37-0.84,0.72-2.02,1.05-3.54l1.86,0.11c-0.1,0.71-0.21,1.56-0.32,2.56
				c-0.12,1-0.22,1.99-0.3,2.96c-0.09,0.97-0.17,1.84-0.24,2.61c-0.07,0.77-0.12,1.3-0.14,1.59c-0.02,0.35-0.03,0.87-0.04,1.55
				c-0.01,0.68-0.03,1.48-0.05,2.4c-0.02,0.92-0.03,1.88-0.03,2.89c0,1.01,0.01,1.99,0.01,2.93l-1.86-0.11
				c-0.22-1.44-0.4-2.56-0.56-3.37c-0.16-0.81-0.47-1.46-0.91-1.96c-0.67-0.75-1.96-1.25-3.87-1.51c-1.91-0.26-4.73-0.49-8.45-0.7
				c-0.83-0.05-1.94-0.11-3.32-0.19c-1.39-0.08-2.9-0.15-4.52-0.21c-1.63-0.06-3.27-0.11-4.92-0.15c-1.66-0.03-3.14-0.06-4.44-0.08
				c-0.07,1.18-0.14,2.66-0.21,4.43c-0.07,1.77-0.15,3.65-0.23,5.63c-0.08,1.98-0.15,3.98-0.21,5.99c-0.06,2.01-0.1,3.85-0.14,5.5
				c3.34,0.67,6.42,1.17,9.25,1.5c2.82,0.34,5.83,0.6,9.02,0.78c3.9,0.22,7.17,0.25,9.82,0.07c2.65-0.17,4.47-0.74,5.47-1.69
				c0.56-0.5,0.96-1.17,1.18-2.02c0.23-0.85,0.42-1.77,0.6-2.77l1.86,0.11c-0.26,2.47-0.49,4.98-0.69,7.52
				c-0.2,2.54-0.35,4.66-0.45,6.37c-2.06-0.24-4.55-0.48-7.47-0.74c-2.92-0.26-6.06-0.52-9.42-0.8c-3.36-0.28-6.86-0.54-10.49-0.78
				c-3.63-0.24-7.16-0.45-10.58-0.65c-4.37-0.25-7.98-0.38-10.82-0.39c-2.84-0.01-5.45,0.03-7.83,0.13L529.07,179z"/>
			<path d="M624.45,140.78l-2.7,9.84c-0.75,2.74-1.48,5.5-2.18,8.28c-0.7,2.78-1.35,5.43-1.94,7.93c-0.59,2.51-1.1,4.79-1.51,6.86
				c-0.41,2.06-0.71,3.78-0.9,5.14c-0.22,1.47-0.26,2.74-0.12,3.79c0.14,1.05,0.51,2,1.11,2.83c0.6,0.84,1.48,1.63,2.66,2.38
				c1.17,0.75,2.71,1.57,4.62,2.46l-0.49,1.8c-1-0.39-2.11-0.81-3.34-1.24c-1.23-0.43-2.48-0.86-3.74-1.3
				c-1.26-0.44-2.46-0.83-3.59-1.17c-1.13-0.34-2.07-0.61-2.81-0.82c-0.74-0.2-1.67-0.44-2.79-0.72c-1.12-0.28-2.31-0.54-3.56-0.79
				c-1.25-0.25-2.52-0.5-3.79-0.76c-1.28-0.26-2.45-0.47-3.51-0.64l0.49-1.8c1.92,0.16,3.54,0.13,4.86-0.1
				c1.32-0.22,2.44-0.69,3.38-1.42c0.93-0.72,1.72-1.74,2.35-3.04c0.63-1.3,1.23-2.98,1.79-5.03l11.44-41.77
				c-0.65-1.22-1.72-2.29-3.21-3.23c-1.49-0.93-3.3-1.78-5.42-2.54l0.49-1.8c0.77,0.33,1.6,0.65,2.5,0.96
				c0.9,0.31,1.75,0.6,2.56,0.89c0.81,0.28,1.52,0.51,2.12,0.67c0.6,0.16,0.98,0.27,1.16,0.32c0.17,0.05,0.54,0.15,1.11,0.3
				c0.57,0.16,1.26,0.32,2.08,0.48c0.81,0.16,1.7,0.34,2.66,0.54c0.96,0.2,1.91,0.37,2.85,0.5l25.07,56.27
				c0.53-1.94,1.22-4.46,2.07-7.57c0.85-3.11,1.72-6.32,2.59-9.64c0.88-3.32,1.72-6.49,2.52-9.52c0.8-3.03,1.42-5.47,1.86-7.31
				c0.46-1.9,0.72-3.51,0.78-4.85c0.06-1.33-0.16-2.48-0.67-3.45c-0.5-0.97-1.32-1.8-2.44-2.51c-1.13-0.71-2.64-1.38-4.55-2.03
				l0.49-1.8c1.72,0.66,3.73,1.34,6.01,2.06c2.29,0.72,4.46,1.36,6.51,1.92c2,0.55,4.19,1.1,6.58,1.66
				c2.39,0.56,4.47,0.99,6.23,1.29l-0.54,1.97c-2.02-0.25-3.6-0.28-4.75-0.11c-1.15,0.18-2.09,0.56-2.8,1.16
				c-0.61,0.45-1.14,1.04-1.59,1.77c-0.45,0.74-0.88,1.75-1.3,3.05c-0.43,1.35-0.99,3.1-1.67,5.25c-0.68,2.15-1.43,4.61-2.25,7.39
				c-0.82,2.78-1.72,5.83-2.69,9.15c-0.97,3.32-1.97,6.84-2.98,10.55l-5.72,20.88l-3.34-0.91L624.45,140.78z"/>
			<path d="M682.5,210.43c2.19,0.91,4.02,1.49,5.49,1.73c1.47,0.25,2.78,0.07,3.95-0.54c1.17-0.6,2.28-1.66,3.35-3.18
				c1.07-1.52,2.28-3.62,3.64-6.31l17.79-35.15c-5.07-2.56-9.08-4.53-12.04-5.89c-2.96-1.36-5.16-2.12-6.62-2.26
				c-1.27-0.11-2.31,0.21-3.12,0.96c-0.81,0.75-1.6,1.76-2.38,3.02l-1.66-0.84c1.15-2.01,2.31-4.14,3.48-6.39
				c1.17-2.26,2.19-4.23,3.04-5.92c5.49,3.04,10.42,5.72,14.78,8.03c4.37,2.31,8.29,4.35,11.78,6.11c1.63,0.83,3.49,1.75,5.56,2.77
				c2.07,1.02,4.27,2.1,6.61,3.25c2.34,1.15,4.76,2.31,7.29,3.49c2.52,1.18,5.05,2.34,7.58,3.49c-0.94,1.85-1.95,3.87-3.03,6.08
				c-1.08,2.2-2.09,4.36-3.03,6.47l-1.66-0.84c0.46-1.43,0.72-2.73,0.79-3.92c0.07-1.19-0.18-2.13-0.76-2.82
				c-0.42-0.48-0.98-0.98-1.68-1.5c-0.7-0.52-1.7-1.16-3.01-1.92c-1.31-0.76-3-1.68-5.07-2.76c-2.07-1.08-4.72-2.44-7.94-4.07
				l-17.79,35.15c-1.36,2.69-2.34,4.92-2.93,6.67c-0.59,1.76-0.78,3.28-0.58,4.58c0.2,1.3,0.84,2.46,1.91,3.5
				c1.07,1.04,2.62,2.17,4.65,3.4l-0.84,1.66c-2.43-1.49-4.69-2.85-6.79-4.08c-2.1-1.23-4.25-2.4-6.47-3.52
				c-2.43-1.23-5.01-2.45-7.74-3.67c-2.73-1.22-5.21-2.25-7.43-3.11L682.5,210.43z"/>
			<path d="M726.62,234.31c1.3,0.62,2.49,1.13,3.58,1.54c1.09,0.4,2.14,0.6,3.16,0.59c1.02-0.01,2.04-0.3,3.06-0.89
				c1.02-0.58,2.09-1.57,3.21-2.95c0.79-1.03,1.79-2.32,2.98-3.87c1.19-1.55,2.41-3.15,3.65-4.81c1.24-1.66,2.41-3.26,3.52-4.79
				c1.11-1.53,2.01-2.78,2.69-3.75c1.73-2.47,3.35-4.82,4.84-7.06c1.5-2.24,2.8-4.28,3.93-6.13c1.12-1.85,2.04-3.45,2.76-4.78
				c0.72-1.34,1.15-2.32,1.3-2.94c0.3-1.45,0.13-2.74-0.49-3.86c-0.62-1.12-1.92-2.59-3.9-4.41l1.07-1.53
				c1.97,1.52,3.99,3.11,6.09,4.76c2.09,1.65,3.8,2.93,5.1,3.85c1.26,0.88,2.97,2,5.14,3.34c2.17,1.34,4.45,2.78,6.84,4.31
				l-1.07,1.53c-1.49-0.76-2.76-1.3-3.79-1.63c-1.03-0.33-1.94-0.48-2.72-0.45c-0.78,0.03-1.5,0.25-2.14,0.66
				c-0.65,0.41-1.3,0.97-1.94,1.68c-0.89,0.96-1.94,2.23-3.15,3.8c-1.21,1.57-2.47,3.24-3.78,4.99s-2.57,3.51-3.79,5.25
				c-1.22,1.74-2.29,3.27-3.21,4.58l-1.73,2.47c-2.24,3.2-4.07,5.82-5.47,7.87c-1.4,2.05-2.5,3.74-3.28,5.07
				c-0.79,1.33-1.35,2.39-1.7,3.2c-0.35,0.8-0.59,1.56-0.72,2.26c-0.34,1.42-0.19,2.83,0.45,4.22c0.65,1.39,1.95,3.07,3.91,5.02
				l-1.07,1.53c-1.2-1.06-2.27-1.99-3.2-2.78c-0.93-0.79-1.84-1.52-2.74-2.19c-0.9-0.67-1.82-1.35-2.75-2.04
				c-0.93-0.69-1.97-1.44-3.13-2.25c-2.32-1.63-4.45-3.05-6.39-4.26c-1.93-1.21-4-2.41-6.2-3.59L726.62,234.31z"/>
			<path d="M755.8,254.1c1.88,1.36,3.6,2.36,5.15,3c1.55,0.64,3.21,0.58,4.98-0.19c0.58-0.27,1.44-0.92,2.61-1.94
				c1.16-1.02,2.5-2.26,4.02-3.71c1.52-1.45,3.12-3.02,4.78-4.7s3.26-3.35,4.8-4.99l1.64-1.75c1.94-2.07,3.82-4.12,5.64-6.14
				c1.82-2.03,3.47-3.92,4.97-5.68c1.49-1.76,2.74-3.31,3.74-4.64c1-1.33,1.64-2.35,1.91-3.07c0.54-1.44,0.53-2.79-0.04-4.05
				c-0.56-1.26-1.78-2.97-3.65-5.12l1.28-1.36c0.99,1.01,1.98,2.04,2.95,3.08c0.98,1.04,1.93,2.03,2.86,2.99
				c0.93,0.95,1.79,1.83,2.6,2.62c0.8,0.79,1.5,1.47,2.11,2.04c0.56,0.53,1.46,1.33,2.71,2.42c1.25,1.09,3.01,2.64,5.3,4.66
				c2.28,2.02,5.13,4.59,8.53,7.7c3.41,3.11,7.53,6.94,12.36,11.47c-0.9,0.78-1.74,1.59-2.53,2.43c-0.79,0.84-1.53,1.63-2.22,2.36
				l-0.49,0.52c-0.65,0.69-1.31,1.44-2,2.26c-0.69,0.82-1.45,1.76-2.29,2.84l-1.36-1.27c1.05-1.29,1.75-2.43,2.12-3.43
				c0.37-1,0.32-2.05-0.13-3.17c-0.46-1.12-1.37-2.42-2.73-3.9c-1.37-1.48-3.28-3.38-5.74-5.69c-0.95-0.89-2.55-2.35-4.79-4.37
				c-2.24-2.02-4.74-4.2-7.49-6.54c-0.89,0.87-1.9,1.85-3.01,2.95c-1.12,1.1-2.27,2.27-3.47,3.5c-1.2,1.23-2.39,2.46-3.59,3.69
				c-1.2,1.23-2.3,2.39-3.31,3.46c0.87,0.89,1.85,1.9,2.95,3.01c1.1,1.12,2.2,2.21,3.31,3.28c1.1,1.07,2.12,2.07,3.05,2.98
				c0.93,0.91,1.65,1.61,2.17,2.1c2.2,2.06,3.95,3.59,5.26,4.57c1.31,0.98,2.46,1.46,3.47,1.43c0.67-0.02,1.34-0.24,2.02-0.66
				c0.68-0.42,1.63-1.07,2.86-1.94l1.36,1.27c-1.26,1.17-2.34,2.21-3.23,3.12c-0.89,0.91-1.76,1.81-2.61,2.72l-2.49,2.65
				c-0.93,0.99-1.89,2.04-2.88,3.14c-0.99,1.1-2.09,2.38-3.3,3.84l-1.36-1.28c1.09-1.33,1.89-2.49,2.4-3.47
				c0.51-0.98,0.65-1.97,0.41-2.96c-0.24-1-0.84-2.09-1.8-3.27c-0.96-1.18-2.37-2.65-4.22-4.38c-0.48-0.45-1.21-1.11-2.2-2
				c-0.99-0.89-2.07-1.86-3.23-2.91c-1.16-1.05-2.36-2.11-3.59-3.18c-1.23-1.07-2.31-2.01-3.26-2.81c-3.03,3.32-5.43,5.96-7.19,7.92
				c-1.76,1.96-3.11,3.53-4.05,4.71c-0.95,1.18-1.63,2.12-2.04,2.83c-0.42,0.7-0.82,1.48-1.21,2.33c-0.51,1.06-0.47,2.44,0.13,4.14
				c0.6,1.7,1.77,3.56,3.51,5.6l-1.28,1.36c-1.65-1.87-3.46-3.83-5.43-5.88c-1.97-2.05-3.86-3.93-5.67-5.63
				c-0.82-0.77-1.73-1.6-2.72-2.49c-0.99-0.89-2-1.76-3.03-2.6c-1.03-0.85-2.03-1.66-3-2.45c-0.97-0.79-1.84-1.46-2.61-2.02
				L755.8,254.1z"/>
			<path d="M799.93,297.29c1.07,0.96,2.08,1.78,3.01,2.48c0.93,0.69,1.89,1.17,2.87,1.45c0.98,0.28,2.04,0.27,3.19,0
				c1.14-0.27,2.45-0.92,3.9-1.94c1.05-0.77,2.37-1.73,3.94-2.88c1.58-1.15,3.19-2.35,4.84-3.6c1.65-1.25,3.22-2.46,4.72-3.62
				c1.49-1.16,2.7-2.11,3.63-2.85c2.35-1.89,4.56-3.7,6.62-5.43c2.06-1.73,3.89-3.33,5.48-4.8c1.59-1.47,2.92-2.74,3.98-3.83
				c1.07-1.08,1.75-1.9,2.07-2.46c0.69-1.31,0.89-2.59,0.61-3.85c-0.28-1.25-1.12-3.03-2.51-5.32l1.45-1.17
				c1.46,2.01,2.97,4.1,4.52,6.27c1.55,2.17,2.83,3.88,3.83,5.12c0.96,1.2,2.3,2.74,4.01,4.64c1.71,1.89,3.5,3.91,5.37,6.05
				l-1.45,1.17c-1.22-1.14-2.28-2.02-3.19-2.62c-0.9-0.6-1.73-1-2.49-1.19c-0.76-0.19-1.51-0.18-2.24,0.04
				c-0.74,0.21-1.52,0.57-2.33,1.07c-1.13,0.68-2.49,1.6-4.09,2.77c-1.6,1.17-3.28,2.42-5.02,3.74c-1.74,1.32-3.45,2.65-5.11,3.99
				c-1.66,1.33-3.11,2.5-4.36,3.5l-2.35,1.89c-3.04,2.44-5.53,4.46-7.44,6.03c-1.92,1.58-3.44,2.9-4.57,3.95
				c-1.13,1.05-1.97,1.92-2.53,2.6c-0.56,0.68-1,1.33-1.32,1.97c-0.73,1.27-0.97,2.66-0.74,4.18c0.23,1.52,1.02,3.49,2.35,5.91
				l-1.45,1.17c-0.86-1.36-1.63-2.55-2.29-3.57c-0.67-1.02-1.34-1.98-2.02-2.87c-0.68-0.9-1.37-1.8-2.07-2.72
				c-0.7-0.92-1.49-1.93-2.38-3.04c-1.78-2.21-3.43-4.17-4.94-5.87c-1.52-1.7-3.17-3.43-4.96-5.18L799.93,297.29z"/>
			<path d="M862.71,364.71c-2,1.04-4.08,2.17-6.25,3.38c-2.17,1.21-4.02,2.27-5.55,3.17c-1.87-1.65-3.45-3.1-4.74-4.36
				c-1.3-1.26-2.43-2.43-3.41-3.5c-0.98-1.07-1.82-2.09-2.52-3.05c-0.7-0.96-1.37-1.97-2-3.04c-2.68-4.53-4.43-9.08-5.27-13.63
				c-0.84-4.56-0.79-8.93,0.14-13.12c0.93-4.19,2.7-8.07,5.33-11.65c2.63-3.58,6.08-6.63,10.36-9.16
				c7.84-4.63,16.32-5.69,25.44-3.17c4.03,1.12,7.85,3.14,11.46,6.06c3.61,2.92,6.64,6.44,9.07,10.56c1.26,2.14,2.52,4.59,3.78,7.35
				c1.25,2.76,2.36,5.65,3.31,8.66c-1.78,1.05-3.65,2.2-5.59,3.45c-1.94,1.25-3.9,2.53-5.88,3.83l-0.95-1.6
				c2.08-2.4,3.12-4.9,3.1-7.5c-0.03-2.6-1.1-5.7-3.24-9.32c-2.11-3.57-4.42-6.35-6.95-8.36c-2.53-2.01-5.53-3.46-9.02-4.36
				c-6.88-1.64-13.42-0.62-19.64,3.05c-3.31,1.96-6.01,4.31-8.1,7.05c-2.09,2.74-3.54,5.7-4.35,8.86c-0.81,3.16-0.97,6.45-0.46,9.86
				c0.5,3.41,1.72,6.75,3.65,10.01c4.45,7.54,10.23,10.51,17.33,8.93L862.71,364.71z"/>
			<path d="M865.93,385.96c0.65,1.52,0.68,2.99,0.1,4.4c-0.59,1.41-1.64,2.44-3.16,3.09c-1.47,0.63-2.92,0.67-4.34,0.12
				c-1.43-0.55-2.46-1.58-3.12-3.11c-0.65-1.52-0.7-3.02-0.13-4.48c0.56-1.46,1.58-2.51,3.05-3.14c1.52-0.65,3.01-0.68,4.46-0.07
				C864.23,383.37,865.28,384.44,865.93,385.96z"/>
			<path d="M893.12,452.73c-2.2,0.5-4.5,1.05-6.9,1.67c-2.41,0.62-4.46,1.17-6.17,1.65c-1.38-2.07-2.54-3.88-3.47-5.43
				c-0.93-1.55-1.73-2.97-2.4-4.26c-0.67-1.29-1.22-2.48-1.66-3.59c-0.43-1.11-0.82-2.26-1.16-3.45c-1.43-5.07-1.97-9.91-1.61-14.53
				c0.35-4.62,1.51-8.84,3.48-12.65c1.97-3.81,4.68-7.12,8.13-9.9c3.45-2.79,7.57-4.86,12.35-6.21c8.77-2.48,17.23-1.34,25.4,3.43
				c3.61,2.11,6.79,5.04,9.54,8.79c2.75,3.74,4.77,7.92,6.08,12.53c0.68,2.39,1.27,5.08,1.77,8.08c0.51,2.99,0.84,6.06,0.99,9.22
				c-1.99,0.56-4.09,1.2-6.28,1.91c-2.2,0.71-4.42,1.45-6.66,2.2l-0.51-1.79c2.63-1.79,4.27-3.94,4.91-6.46
				c0.64-2.52,0.39-5.8-0.75-9.84c-1.13-3.98-2.65-7.27-4.59-9.86c-1.93-2.59-4.47-4.76-7.6-6.52c-6.23-3.34-12.82-4.03-19.76-2.07
				c-3.7,1.05-6.91,2.63-9.63,4.75c-2.72,2.12-4.88,4.61-6.47,7.45c-1.59,2.85-2.58,5.99-2.97,9.41c-0.38,3.43-0.06,6.96,0.97,10.61
				c2.38,8.42,7.21,12.78,14.48,13.06L893.12,452.73z"/>
			<path d="M881.16,463.88c0.51,2.86,1.2,4.98,2.08,6.35c0.87,1.37,2.11,2.31,3.7,2.81c0.68,0.23,1.86,0.36,3.56,0.37
				c1.69,0.02,3.68-0.03,5.96-0.13c2.28-0.1,4.73-0.26,7.35-0.48c2.62-0.22,5.23-0.46,7.82-0.7l2.38-0.23
				c2-0.19,4.19-0.43,6.57-0.72c2.38-0.29,4.64-0.59,6.78-0.92c2.14-0.33,4.05-0.66,5.74-1c1.69-0.34,2.88-0.69,3.55-1.05
				c1.24-0.71,2.1-1.67,2.58-2.88c0.48-1.2,0.77-3.15,0.87-5.83l1.86-0.18c0.05,1.18,0.11,2.51,0.16,4c0.05,1.48,0.12,2.92,0.19,4.3
				c0.07,1.39,0.15,2.62,0.22,3.68c0.07,1.06,0.13,1.77,0.16,2.12c0.04,0.41,0.12,1.12,0.25,2.12c0.12,1,0.28,2.16,0.47,3.48
				c0.19,1.32,0.4,2.73,0.63,4.22c0.23,1.49,0.44,2.91,0.63,4.26l-1.85,0.18c-0.46-1.68-0.94-3.13-1.44-4.36
				c-0.51-1.23-1.17-2.1-1.99-2.62c-0.89-0.57-2.34-0.88-4.37-0.92c-0.78-0.05-2.3,0-4.58,0.13c-2.28,0.13-4.78,0.31-7.52,0.54
				c-2.74,0.23-5.51,0.47-8.31,0.71c-2.8,0.24-5.11,0.45-6.94,0.62l-2.65,0.25c-2.18,0.21-4.5,0.48-6.97,0.8
				c-2.47,0.33-5.46,0.72-8.98,1.17c0.05,3.62,0.14,6.94,0.29,9.96c0.14,3.02,0.3,5.47,0.48,7.35c0.35,3.59,0.69,6.45,1.05,8.59
				c0.35,2.13,0.86,3.75,1.53,4.85c0.67,1.09,1.54,1.81,2.61,2.16c1.07,0.34,2.5,0.52,4.29,0.53l0.18,1.86
				c-2.31,0.04-4.68,0.12-7.11,0.24c-2.43,0.11-5,0.24-7.72,0.38c-0.19-3.85-0.35-7.1-0.49-9.76c-0.14-2.66-0.29-5.04-0.46-7.13
				c-0.17-2.09-0.33-4.06-0.48-5.88c-0.15-1.83-0.32-3.77-0.51-5.83l-0.86-8.92c-0.34-3.59-0.72-6.88-1.12-9.88
				c-0.41-2.99-0.88-5.8-1.43-8.42L881.16,463.88z"/>
			<path d="M929.43,579.8c1.82,0.17,3.41,0.19,4.76,0.04c1.35-0.14,2.52-0.54,3.5-1.19c0.98-0.65,1.81-1.58,2.49-2.8
				c0.68-1.22,1.29-2.81,1.83-4.77l1.86,0.17c-0.15,0.94-0.32,2.02-0.53,3.25c-0.2,1.23-0.39,2.46-0.57,3.69
				c-0.17,1.23-0.33,2.4-0.46,3.52c-0.13,1.11-0.23,2.03-0.3,2.73c-0.07,0.71-0.13,1.58-0.2,2.61c-0.07,1.03-0.12,2.11-0.17,3.24
				c-0.05,1.12-0.08,2.26-0.1,3.42c-0.02,1.16-0.05,2.27-0.09,3.33l-1.86-0.17c0.04-1.66-0.07-3.05-0.32-4.17
				c-0.25-1.12-0.73-2.06-1.43-2.81c-0.7-0.75-1.69-1.33-2.96-1.75c-1.27-0.42-2.9-0.72-4.91-0.9l-24.21-2.26
				c-3.89-0.36-7.46-1.22-10.72-2.56c-3.26-1.34-5.84-3.03-7.73-5.05c-5.2-5.42-7.38-12.57-6.55-21.47
				c0.42-4.48,1.47-8.39,3.15-11.74c1.68-3.35,3.94-5.96,6.79-7.83c1.64-1.04,3.3-1.82,4.99-2.34c1.68-0.53,3.82-0.83,6.41-0.92
				c2.59-0.08,5.88,0.03,9.86,0.34c3.98,0.31,9.09,0.76,15.34,1.35l3.8,0.36c2.89,0.27,5.24,0.37,7.06,0.3
				c1.82-0.07,3.26-0.41,4.33-1.02c1.07-0.61,1.87-1.52,2.39-2.72c0.53-1.2,0.94-2.8,1.25-4.79l1.85,0.17
				c-0.39,2.87-0.78,5.63-1.17,8.27c-0.4,2.64-0.66,4.63-0.78,5.99c-0.07,0.76-0.15,1.74-0.23,2.92c-0.08,1.18-0.15,2.41-0.21,3.68
				c-0.06,1.27-0.11,2.56-0.14,3.86c-0.03,1.3-0.07,2.46-0.1,3.47l-1.86-0.17c0.06-1.9-0.08-3.45-0.41-4.67
				c-0.33-1.22-1.01-2.22-2.04-3c-1.03-0.78-2.49-1.38-4.38-1.79c-1.89-0.42-4.34-0.76-7.34-1.04l-2.74-0.26
				c-4.77-0.45-8.78-0.81-12.02-1.08c-3.24-0.27-5.99-0.46-8.24-0.55c-2.25-0.09-4.14-0.05-5.67,0.14c-1.53,0.18-2.94,0.48-4.23,0.9
				c-2.94,0.97-5.11,2.67-6.49,5.1c-1.38,2.42-2.23,5.26-2.53,8.5c-0.36,3.89,0.08,7.35,1.35,10.38c1.26,3.03,3.19,5.29,5.78,6.78
				c1.24,0.71,2.95,1.36,5.12,1.95c2.17,0.59,4.61,1.01,7.32,1.26L929.43,579.8z"/>
			<path d="M879.89,594.88c-0.43,2.4-0.62,4.3-0.55,5.68c0.07,1.38,0.54,2.64,1.43,3.79c0.4,0.5,1.09,1.03,2.06,1.61
				c0.97,0.58,2.37,1.24,4.21,2c1.84,0.75,4.17,1.62,7,2.58c2.83,0.97,6.3,2.09,10.43,3.36l1.27,0.39c2.77,0.86,5.41,1.64,7.91,2.35
				c2.5,0.71,4.76,1.33,6.76,1.86c2,0.53,3.75,0.93,5.25,1.2c1.49,0.28,2.61,0.41,3.36,0.39c1.42,0.01,2.65-0.45,3.68-1.37
				c1.03-0.92,2.1-2.6,3.23-5.04l1.78,0.55c-0.32,0.83-0.71,1.85-1.18,3.07c-0.47,1.22-0.94,2.48-1.4,3.79
				c-0.47,1.31-0.89,2.53-1.27,3.65c-0.38,1.12-0.66,1.99-0.86,2.61c-0.17,0.56-0.53,1.82-1.07,3.76c-0.54,1.94-1.12,4.08-1.76,6.42
				c-0.63,2.34-1.27,4.65-1.91,6.93c-0.64,2.28-1.16,4.07-1.57,5.37c-1.07,3.45-2.09,6.1-3.07,7.97c-0.98,1.86-2.07,3.45-3.28,4.74
				c-2.11,2.2-4.47,3.59-7.09,4.17c-2.63,0.58-5.12,0.51-7.5-0.23c-3.56-1.1-6.18-3.18-7.87-6.24c-1.69-3.06-2.31-6.78-1.89-11.17
				c-1.54,2.99-3.26,5.34-5.15,7.04c-2.2,1.92-4.57,3.08-7.11,3.47c-2.54,0.39-5.02,0.21-7.45-0.54c-4.52-1.4-7.7-4.05-9.52-7.96
				c-1.2-2.54-1.89-5.26-2.07-8.16c-0.19-2.91,0.33-6.31,1.53-10.21c0.09-0.28,0.33-1.03,0.74-2.23c0.4-1.21,0.9-2.65,1.48-4.33
				c0.58-1.68,1.22-3.48,1.9-5.4c0.69-1.92,1.33-3.74,1.92-5.44c0.59-1.71,1.1-3.21,1.53-4.5c0.43-1.29,0.71-2.14,0.83-2.53
				c0.26-0.85,0.57-1.88,0.91-3.11c0.35-1.23,0.68-2.48,0.98-3.78c0.31-1.3,0.61-2.57,0.9-3.81c0.29-1.24,0.52-2.33,0.69-3.27
				L879.89,594.88z M900.22,622.25c-3.9-1.21-7.56-2.29-10.98-3.26c-3.42-0.96-6.67-1.86-9.76-2.69c-1.1,1.95-2.08,4.02-2.94,6.2
				c-0.86,2.18-1.76,4.8-2.71,7.85c-0.51,1.64-0.96,3.29-1.35,4.97c-0.39,1.67-0.55,3.17-0.46,4.5c0.11,2.64,0.84,4.84,2.18,6.62
				c1.34,1.78,3.2,3.03,5.57,3.77c2.37,0.73,4.58,0.8,6.63,0.19c2.05-0.61,3.89-1.96,5.53-4.05c0.8-0.99,1.52-2.22,2.16-3.7
				c0.64-1.47,1.22-3.06,1.75-4.75c0.19-0.62,0.47-1.56,0.82-2.81c0.36-1.25,0.75-2.63,1.19-4.14c0.43-1.51,0.86-3.03,1.28-4.57
				C899.54,624.83,899.91,623.46,900.22,622.25z M907.08,624.38c-0.37,1-0.81,2.22-1.32,3.68c-0.51,1.45-1,2.88-1.46,4.28
				c-0.47,1.4-0.9,2.7-1.29,3.87c-0.4,1.18-0.66,1.99-0.8,2.44c-1.49,4.8-1.75,8.87-0.8,12.2c0.95,3.33,3.04,5.49,6.26,6.49
				c1.64,0.51,3.31,0.55,5.03,0.11c1.71-0.43,3.18-1.42,4.4-2.96c1.75-2.25,3.36-5.74,4.82-10.49c0.89-2.88,1.62-5.5,2.2-7.87
				c0.58-2.36,0.93-4.26,1.07-5.71c-2.34-0.85-4.96-1.77-7.88-2.76c-2.91-0.99-5.56-1.86-7.93-2.59L907.08,624.38z"/>
		</g>
		<g>
			<path d="M242.59,762.85c0.9,0.81,1.74,1.43,2.51,1.85c0.77,0.42,1.64,0.48,2.61,0.18c0.31-0.11,0.8-0.4,1.46-0.86
				c0.66-0.47,1.43-1.04,2.3-1.71c0.87-0.67,1.79-1.4,2.75-2.18c0.96-0.79,1.88-1.56,2.77-2.33l0.95-0.82
				c1.13-0.97,2.22-1.93,3.28-2.89c1.06-0.95,2.03-1.85,2.9-2.68c0.87-0.84,1.61-1.57,2.21-2.21c0.6-0.64,0.98-1.13,1.16-1.49
				c0.36-0.72,0.43-1.42,0.21-2.11c-0.22-0.69-0.76-1.64-1.61-2.87l0.74-0.64c0.46,0.58,0.92,1.17,1.37,1.76
				c0.45,0.59,0.89,1.16,1.32,1.71c0.43,0.55,0.83,1.05,1.21,1.51c0.37,0.46,0.7,0.85,0.98,1.18c0.26,0.3,0.69,0.78,1.28,1.41
				c0.59,0.64,1.42,1.54,2.5,2.72c1.08,1.18,2.41,2.67,4.01,4.48c1.6,1.81,3.53,4.03,5.8,6.65c-0.51,0.36-0.99,0.73-1.45,1.13
				c-0.46,0.39-0.89,0.76-1.28,1.11l-0.28,0.24c-0.37,0.32-0.76,0.68-1.17,1.07c-0.4,0.39-0.85,0.84-1.35,1.35l-0.64-0.74
				c0.62-0.61,1.05-1.17,1.29-1.67c0.25-0.5,0.28-1.05,0.11-1.66c-0.17-0.61-0.58-1.33-1.2-2.18c-0.63-0.85-1.52-1.94-2.67-3.28
				c-0.44-0.52-1.19-1.36-2.25-2.54c-1.05-1.18-2.23-2.45-3.54-3.82c-0.51,0.4-1.09,0.86-1.73,1.37c-0.64,0.51-1.31,1.05-2,1.63
				c-0.69,0.57-1.38,1.15-2.07,1.72c-0.69,0.57-1.33,1.11-1.92,1.62c0.4,0.51,0.86,1.09,1.37,1.73c0.51,0.64,1.02,1.27,1.54,1.89
				c0.51,0.62,0.99,1.19,1.42,1.72c0.43,0.53,0.77,0.93,1.01,1.21c1.03,1.2,1.86,2.09,2.49,2.67c0.63,0.58,1.2,0.9,1.72,0.93
				c0.35,0.03,0.71-0.05,1.09-0.23c0.38-0.18,0.91-0.47,1.6-0.85l0.64,0.74c-0.72,0.54-1.34,1.02-1.85,1.44
				c-0.51,0.42-1.02,0.85-1.51,1.27l-1.44,1.24c-0.54,0.47-1.1,0.96-1.67,1.47c-0.58,0.52-1.22,1.12-1.93,1.82l-0.64-0.74
				c0.64-0.63,1.12-1.19,1.44-1.67c0.32-0.48,0.45-0.99,0.38-1.52c-0.07-0.53-0.32-1.13-0.76-1.8c-0.43-0.67-1.08-1.51-1.95-2.52
				c-0.22-0.26-0.57-0.65-1.03-1.16c-0.47-0.52-0.97-1.08-1.52-1.69c-0.55-0.61-1.11-1.23-1.69-1.85c-0.58-0.62-1.09-1.17-1.54-1.65
				c-1.76,1.56-3.16,2.8-4.18,3.72c-1.02,0.92-1.81,1.67-2.37,2.23c-0.56,0.56-0.96,1.01-1.22,1.36c-0.26,0.34-0.51,0.72-0.76,1.15
				c-0.32,0.53-0.38,1.25-0.16,2.16c0.22,0.92,0.72,1.95,1.51,3.11l-0.74,0.64c-0.76-1.07-1.59-2.19-2.5-3.36
				c-0.91-1.18-1.79-2.26-2.64-3.24c-0.38-0.45-0.81-0.93-1.27-1.44c-0.47-0.52-0.95-1.02-1.43-1.52c-0.49-0.5-0.97-0.98-1.42-1.44
				c-0.46-0.46-0.88-0.86-1.24-1.2L242.59,762.85z"/>
			<path d="M262.93,786.84c0.6,0.4,1.25,0.67,1.94,0.82c0.69,0.15,1.61,0.14,2.76-0.01c1.15-0.15,2.6-0.48,4.38-0.97
				c1.77-0.5,4.05-1.2,6.83-2.1L300,777.7l1.42,1.34l-7.21,27.52c-0.2,0.71-0.4,1.47-0.6,2.28c-0.2,0.82-0.32,1.56-0.37,2.24
				c-0.12,1.38-0.05,2.52,0.19,3.41c0.24,0.89,0.54,1.59,0.91,2.11l-0.67,0.71c-0.36-0.38-0.77-0.83-1.23-1.33
				c-0.46-0.5-0.93-1.01-1.39-1.51c-0.46-0.5-0.89-0.96-1.28-1.38c-0.4-0.42-0.7-0.73-0.93-0.94c-0.25-0.23-0.58-0.54-0.99-0.91
				c-0.42-0.37-0.88-0.76-1.38-1.18c-0.5-0.41-1.02-0.84-1.54-1.27c-0.53-0.44-1.01-0.82-1.46-1.16l0.67-0.71
				c1.05,0.91,1.86,1.47,2.41,1.68c0.55,0.2,1.03,0.09,1.44-0.33c0.13-0.14,0.29-0.42,0.49-0.85c0.2-0.43,0.4-0.94,0.6-1.51
				c0.2-0.58,0.42-1.2,0.66-1.87c0.23-0.67,0.45-1.34,0.65-2.01c-0.92-0.96-1.96-2.01-3.12-3.15c-1.16-1.14-2.38-2.32-3.66-3.53
				c-1.21-1.15-2.45-2.3-3.72-3.46c-1.27-1.16-2.36-2.13-3.28-2.92c-3.32,1.25-5.23,2.14-5.74,2.68c-0.45,0.47-0.58,1.01-0.4,1.6
				c0.18,0.6,0.69,1.31,1.52,2.14l-0.67,0.71c-0.41-0.47-0.82-0.94-1.25-1.41c-0.43-0.47-0.84-0.92-1.22-1.35
				c-0.38-0.43-0.74-0.8-1.05-1.12c-0.32-0.32-0.55-0.55-0.71-0.7c-0.43-0.41-1.07-0.96-1.93-1.67c-0.86-0.71-1.82-1.48-2.87-2.3
				L262.93,786.84z M287.49,794.76c0.88,0.83,1.62,1.51,2.22,2.04c0.6,0.53,1.17,0.99,1.71,1.37l3.99-15.35l-14.98,4.93
				c0.52,0.62,1.08,1.24,1.69,1.86c0.61,0.62,1.27,1.27,1.99,1.95L287.49,794.76z"/>
			<path d="M324.22,829.96c-0.76,0.9-1.55,1.85-2.37,2.87c-0.81,1.01-1.5,1.89-2.07,2.63c-1.23-0.43-2.28-0.83-3.16-1.19
				c-0.87-0.36-1.65-0.7-2.34-1.03c-0.68-0.33-1.29-0.66-1.82-0.98c-0.53-0.33-1.05-0.69-1.57-1.08c-2.19-1.67-3.93-3.54-5.23-5.58
				c-1.3-2.05-2.14-4.18-2.51-6.39c-0.37-2.21-0.27-4.45,0.3-6.7c0.57-2.25,1.65-4.41,3.23-6.47c2.9-3.79,6.8-5.96,11.72-6.53
				c2.18-0.24,4.43-0.01,6.75,0.69c2.32,0.71,4.48,1.82,6.47,3.35c1.03,0.79,2.12,1.73,3.27,2.83c1.15,1.1,2.25,2.28,3.3,3.55
				c-0.66,0.86-1.34,1.78-2.03,2.77c-0.7,0.99-1.4,1.99-2.1,3.01l-0.77-0.59c0.54-1.57,0.55-2.99,0.03-4.24
				c-0.52-1.26-1.65-2.55-3.4-3.89c-1.72-1.32-3.39-2.22-5.01-2.7c-1.62-0.48-3.37-0.6-5.23-0.35c-3.66,0.55-6.64,2.33-8.93,5.33
				c-1.22,1.6-2.07,3.27-2.55,5.01c-0.48,1.74-0.6,3.46-0.38,5.15c0.22,1.69,0.79,3.32,1.71,4.87c0.91,1.56,2.16,2.94,3.73,4.14
				c3.64,2.78,7.03,3.1,10.16,0.93L324.22,829.96z"/>
			<path d="M362.12,833.45c0.5-0.82,0.88-1.56,1.12-2.23c0.25-0.67,0.33-1.31,0.25-1.92c-0.08-0.61-0.32-1.22-0.74-1.82
				c-0.41-0.6-1.02-1.25-1.82-1.96l0.51-0.83c0.41,0.29,0.87,0.62,1.4,1c0.53,0.38,1.06,0.75,1.6,1.12
				c0.54,0.37,1.05,0.71,1.55,1.03c0.49,0.32,0.9,0.58,1.22,0.77c0.32,0.19,0.71,0.43,1.18,0.7c0.47,0.27,0.96,0.55,1.48,0.83
				c0.52,0.28,1.04,0.56,1.58,0.84c0.54,0.28,1.05,0.55,1.55,0.81l-0.51,0.83c-0.77-0.4-1.45-0.67-2.04-0.81
				c-0.59-0.14-1.13-0.13-1.65,0.02c-0.51,0.16-1.02,0.48-1.5,0.98c-0.49,0.5-1.01,1.2-1.56,2.09l-6.66,10.84
				c-1.07,1.74-2.3,3.22-3.68,4.44c-1.39,1.22-2.77,2.04-4.16,2.46c-3.75,1.19-7.61,0.56-11.59-1.89c-2.01-1.23-3.6-2.63-4.78-4.19
				c-1.18-1.56-1.89-3.23-2.11-5c-0.11-1.01-0.09-1.97,0.05-2.88c0.14-0.91,0.49-1.99,1.05-3.22c0.56-1.24,1.37-2.75,2.44-4.55
				c1.07-1.8,2.46-4.09,4.18-6.89l1.04-1.7c0.8-1.29,1.39-2.37,1.77-3.24c0.39-0.87,0.56-1.63,0.52-2.27
				c-0.04-0.64-0.28-1.23-0.72-1.75c-0.44-0.52-1.09-1.09-1.96-1.69l0.51-0.83c1.26,0.85,2.46,1.67,3.61,2.46
				c1.15,0.79,2.02,1.38,2.63,1.75c0.34,0.21,0.78,0.47,1.32,0.78c0.54,0.31,1.09,0.63,1.68,0.95c0.58,0.32,1.18,0.64,1.78,0.96
				c0.6,0.32,1.14,0.6,1.6,0.85l-0.51,0.83c-0.88-0.47-1.64-0.76-2.29-0.89c-0.65-0.13-1.28-0.04-1.88,0.26
				c-0.6,0.3-1.22,0.85-1.85,1.64c-0.63,0.79-1.36,1.86-2.19,3.21l-0.75,1.23c-1.31,2.14-2.41,3.94-3.28,5.39
				c-0.88,1.46-1.6,2.71-2.16,3.74c-0.56,1.03-0.98,1.93-1.25,2.7c-0.27,0.76-0.45,1.49-0.56,2.19c-0.22,1.61,0.07,3.02,0.89,4.23
				c0.82,1.21,1.95,2.26,3.4,3.15c1.74,1.07,3.47,1.66,5.18,1.77c1.71,0.11,3.22-0.27,4.52-1.15c0.62-0.42,1.32-1.07,2.1-1.95
				c0.78-0.88,1.54-1.93,2.29-3.15L362.12,833.45z"/>
			<path d="M360.85,861.29c1.42,0.55,2.55,0.81,3.41,0.8c0.85-0.02,1.6-0.32,2.26-0.89c0.29-0.24,0.67-0.74,1.13-1.49
				c0.47-0.75,0.99-1.65,1.56-2.7c0.58-1.05,1.17-2.19,1.78-3.42c0.61-1.23,1.22-2.46,1.81-3.69l0.55-1.13
				c0.46-0.95,0.95-1.99,1.46-3.14c0.52-1.14,1-2.23,1.43-3.28c0.44-1.04,0.81-1.99,1.12-2.84c0.31-0.85,0.47-1.47,0.5-1.88
				c0.02-0.75-0.18-1.39-0.59-1.93c-0.41-0.54-1.2-1.2-2.37-1.97l0.42-0.88c0.54,0.3,1.15,0.64,1.83,1.01
				c0.68,0.38,1.33,0.74,1.98,1.09c0.64,0.34,1.21,0.65,1.7,0.9c0.49,0.26,0.83,0.43,0.99,0.51c0.19,0.09,0.53,0.25,1.01,0.47
				c0.48,0.22,1.04,0.46,1.68,0.74c0.64,0.28,1.33,0.56,2.06,0.87c0.73,0.3,1.42,0.59,2.08,0.88l-0.43,0.88
				c-0.88-0.25-1.66-0.43-2.34-0.54c-0.69-0.11-1.26-0.05-1.71,0.18c-0.5,0.24-1.03,0.81-1.6,1.7c-0.23,0.34-0.63,1.03-1.19,2.08
				c-0.56,1.05-1.16,2.22-1.8,3.51c-0.64,1.29-1.29,2.59-1.94,3.91c-0.66,1.32-1.19,2.41-1.61,3.27l-0.61,1.25
				c-0.5,1.03-1.01,2.14-1.53,3.33c-0.53,1.19-1.16,2.64-1.92,4.33c1.63,0.96,3.14,1.82,4.53,2.58c1.39,0.76,2.53,1.35,3.42,1.78
				c1.7,0.82,3.07,1.44,4.13,1.87c1.05,0.42,1.91,0.63,2.58,0.63c0.67,0,1.23-0.2,1.68-0.58c0.44-0.39,0.91-0.98,1.4-1.77l0.88,0.42
				c-0.61,1.05-1.22,2.13-1.83,3.24c-0.61,1.12-1.25,2.3-1.93,3.56c-1.77-0.96-3.27-1.77-4.5-2.43c-1.23-0.66-2.33-1.24-3.31-1.73
				c-0.98-0.49-1.9-0.95-2.76-1.39c-0.86-0.43-1.77-0.88-2.75-1.35l-4.22-2.04c-1.7-0.82-3.28-1.55-4.72-2.18
				c-1.45-0.63-2.83-1.18-4.15-1.65L360.85,861.29z"/>
			<path d="M397.19,878.04c1.19,0.36,2.17,0.56,2.95,0.61c0.78,0.05,1.45-0.12,2.03-0.49c0.57-0.38,1.1-0.99,1.57-1.84
				c0.47-0.85,0.99-2.01,1.55-3.48l7.36-19.26c-2.78-1.06-4.97-1.87-6.58-2.42c-1.61-0.55-2.8-0.82-3.57-0.82
				c-0.67,0.01-1.19,0.23-1.57,0.67c-0.38,0.43-0.74,1-1.07,1.7l-0.91-0.35c0.49-1.11,0.98-2.28,1.47-3.52
				c0.49-1.24,0.91-2.32,1.26-3.25c3.02,1.29,5.73,2.41,8.13,3.38c2.4,0.97,4.55,1.81,6.46,2.54c0.9,0.34,1.91,0.72,3.04,1.14
				c1.13,0.42,2.34,0.86,3.62,1.33c1.28,0.47,2.6,0.95,3.98,1.42c1.38,0.48,2.75,0.95,4.14,1.41c-0.39,1.01-0.8,2.12-1.25,3.33
				c-0.44,1.21-0.85,2.38-1.23,3.53l-0.91-0.35c0.16-0.77,0.23-1.46,0.2-2.09c-0.03-0.62-0.21-1.1-0.55-1.43
				c-0.25-0.23-0.56-0.46-0.96-0.69c-0.39-0.23-0.95-0.51-1.67-0.84c-0.72-0.33-1.65-0.71-2.79-1.16c-1.14-0.45-2.59-1.01-4.35-1.69
				l-7.36,19.26c-0.56,1.47-0.95,2.69-1.16,3.63c-0.21,0.95-0.23,1.75-0.05,2.42c0.18,0.66,0.57,1.24,1.18,1.72
				c0.61,0.48,1.48,0.99,2.6,1.52l-0.35,0.91c-1.34-0.65-2.6-1.23-3.75-1.76c-1.16-0.52-2.35-1.02-3.56-1.48
				c-1.33-0.51-2.74-1.01-4.23-1.49c-1.49-0.49-2.83-0.89-4.03-1.22L397.19,878.04z"/>
			<path d="M424.32,888.16c1,0.11,1.81,0.16,2.44,0.14c0.63-0.02,1.16-0.13,1.58-0.33c0.43-0.2,0.79-0.52,1.11-0.95
				c0.31-0.43,0.62-0.98,0.94-1.67c0.12-0.32,0.3-0.82,0.54-1.51c0.24-0.69,0.49-1.48,0.77-2.36c0.28-0.89,0.57-1.84,0.88-2.86
				c0.31-1.02,0.6-2.03,0.88-3.01l0.16-0.58c0.25-0.9,0.53-1.96,0.85-3.18c0.32-1.23,0.62-2.44,0.9-3.63
				c0.28-1.19,0.53-2.29,0.74-3.29c0.21-1,0.33-1.72,0.36-2.17c0.08-1.23-0.21-2.14-0.86-2.74c-0.65-0.6-1.65-1.14-2.99-1.64
				l0.26-0.94c0.57,0.16,1.2,0.35,1.91,0.57c0.71,0.23,1.41,0.46,2.12,0.7c0.7,0.24,1.37,0.47,2.01,0.67
				c0.63,0.21,1.17,0.37,1.62,0.49c0.45,0.12,1.17,0.32,2.17,0.6c1,0.27,2.14,0.58,3.41,0.91c1.27,0.33,2.62,0.68,4.05,1.04
				c1.43,0.36,2.81,0.72,4.14,1.07c1.33,0.35,2.55,0.66,3.67,0.94c1.11,0.27,2,0.49,2.67,0.64c-0.11,0.39-0.26,0.89-0.46,1.51
				c-0.2,0.62-0.33,1.03-0.39,1.24l-0.19,0.67c-0.16,0.57-0.29,1.12-0.4,1.65c-0.11,0.53-0.21,1.12-0.3,1.77l-0.94-0.26
				c0.14-0.86,0.15-1.56,0.03-2.11c-0.12-0.55-0.54-1.06-1.27-1.53c-0.72-0.47-1.82-0.94-3.3-1.41c-1.48-0.47-3.51-1.06-6.11-1.78
				c-1.16-0.32-2.15-0.57-2.97-0.75c-0.82-0.18-1.6-0.3-2.35-0.38c-0.28,0.89-0.56,1.79-0.84,2.71c-0.28,0.92-0.55,1.81-0.81,2.67
				c-0.25,0.86-0.49,1.66-0.71,2.41c-0.22,0.74-0.4,1.38-0.55,1.92c0.71,0.23,1.46,0.47,2.26,0.72c0.8,0.25,1.59,0.49,2.38,0.73
				c0.79,0.23,1.52,0.45,2.2,0.65c0.68,0.2,1.26,0.37,1.74,0.5c1.61,0.44,2.88,0.77,3.8,0.97c0.92,0.21,1.64,0.27,2.16,0.19
				c0.52-0.08,0.92-0.32,1.21-0.7c0.28-0.39,0.59-0.95,0.93-1.7l0.94,0.26c-0.13,0.35-0.28,0.77-0.45,1.27
				c-0.17,0.5-0.33,0.99-0.48,1.48c-0.15,0.49-0.29,0.92-0.41,1.31c-0.12,0.38-0.2,0.65-0.24,0.8c-0.05,0.18-0.11,0.44-0.19,0.79
				c-0.08,0.35-0.18,0.75-0.29,1.22c-0.11,0.47-0.22,0.96-0.33,1.47c-0.11,0.52-0.21,1.02-0.32,1.5l-0.94-0.26
				c0.05-0.76,0.07-1.35,0.08-1.78c0.01-0.43-0.08-0.8-0.25-1.1c-0.26-0.46-0.87-0.86-1.81-1.2c-0.95-0.34-2.36-0.77-4.24-1.29
				c-0.42-0.11-0.98-0.27-1.68-0.46c-0.7-0.19-1.47-0.39-2.29-0.6c-0.82-0.21-1.66-0.42-2.5-0.62c-0.84-0.2-1.6-0.38-2.26-0.53
				c-0.16,0.6-0.36,1.34-0.59,2.25c-0.23,0.9-0.48,1.85-0.74,2.86c-0.26,1-0.52,2.02-0.76,3.04c-0.25,1.02-0.47,1.96-0.67,2.8
				c1.64,0.71,3.16,1.3,4.57,1.79c1.41,0.48,2.92,0.95,4.53,1.39c1.97,0.54,3.64,0.91,5.01,1.12c1.37,0.2,2.37,0.11,2.99-0.26
				c0.34-0.19,0.62-0.5,0.83-0.9c0.21-0.41,0.41-0.86,0.61-1.35l0.94,0.26c-0.41,1.24-0.8,2.49-1.18,3.77
				c-0.38,1.28-0.69,2.35-0.93,3.21c-1.03-0.35-2.28-0.75-3.74-1.2c-1.47-0.45-3.04-0.93-4.73-1.45c-1.69-0.51-3.45-1.03-5.28-1.55
				c-1.83-0.52-3.61-1.02-5.35-1.49c-2.21-0.61-4.04-1.07-5.49-1.39c-1.45-0.32-2.79-0.58-4.02-0.79L424.32,888.16z"/>
			<path d="M466.92,894.01c0.85,0.17,1.49,0.59,1.92,1.26c0.43,0.67,0.56,1.43,0.39,2.28c-0.17,0.82-0.58,1.46-1.24,1.91
				c-0.66,0.45-1.41,0.59-2.26,0.42c-0.85-0.17-1.51-0.6-1.97-1.27c-0.47-0.68-0.61-1.43-0.45-2.24c0.17-0.85,0.6-1.5,1.29-1.94
				C465.31,893.98,466.07,893.84,466.92,894.01z"/>
			<path d="M475.88,900.95c1.52,0.06,2.68-0.05,3.48-0.34c0.8-0.29,1.42-0.81,1.86-1.57c0.32-0.55,0.64-1.67,0.98-3.34
				c0.33-1.67,0.7-4.17,1.12-7.49l0.23-1.89c0.18-1.44,0.34-2.87,0.49-4.29c0.15-1.42,0.26-2.72,0.35-3.91
				c0.08-1.19,0.14-2.23,0.15-3.12c0.02-0.89-0.03-1.52-0.14-1.91c-0.19-0.74-0.58-1.3-1.17-1.69c-0.59-0.38-1.58-0.74-2.98-1.07
				l0.12-0.97c0.55,0.1,1.19,0.21,1.92,0.33c0.73,0.12,1.46,0.24,2.18,0.36c0.72,0.12,1.37,0.22,1.95,0.31
				c0.58,0.09,1.01,0.15,1.29,0.18c0.43,0.05,1.02,0.11,1.78,0.17c0.76,0.06,1.57,0.13,2.45,0.21c0.88,0.08,1.75,0.16,2.61,0.23
				c0.86,0.08,1.62,0.15,2.26,0.23c0.74,0.09,1.4,0.18,1.98,0.27c0.58,0.09,1.11,0.18,1.58,0.29c0.47,0.11,0.92,0.22,1.34,0.35
				c0.42,0.13,0.85,0.29,1.3,0.47c1.81,0.76,3.41,1.73,4.81,2.91c1.4,1.19,2.54,2.54,3.43,4.05c0.89,1.51,1.52,3.17,1.89,4.96
				c0.37,1.79,0.44,3.66,0.19,5.59c-0.22,1.75-0.67,3.38-1.35,4.89c-0.69,1.51-1.57,2.85-2.65,4.05c-1.08,1.19-2.35,2.2-3.79,3.04
				c-1.44,0.83-3.02,1.44-4.72,1.82c-0.9,0.23-1.91,0.35-3.02,0.35c-1.11,0-2.17-0.06-3.18-0.18c-0.86-0.11-1.8-0.25-2.83-0.42
				c-1.02-0.17-2.05-0.35-3.07-0.52c-1.02-0.17-2-0.34-2.93-0.5c-0.93-0.16-1.74-0.29-2.41-0.37c-0.43-0.05-0.97-0.11-1.62-0.18
				c-0.65-0.06-1.32-0.12-2.02-0.16c-0.7-0.04-1.4-0.08-2.09-0.12c-0.7-0.04-1.33-0.06-1.89-0.07L475.88,900.95z M487.94,890.52
				c-0.09,0.71-0.17,1.34-0.24,1.91c-0.07,0.57-0.14,1.16-0.22,1.77c-0.08,0.62-0.15,1.32-0.22,2.13c-0.07,0.8-0.15,1.79-0.23,2.97
				c1.06,0.29,2.03,0.53,2.93,0.71c0.9,0.19,1.74,0.33,2.54,0.43c1.23,0.15,2.38,0.23,3.46,0.22s2.1-0.14,3.07-0.39
				c1.16-0.29,2.26-0.75,3.31-1.37c1.04-0.62,1.97-1.39,2.79-2.3c0.82-0.91,1.5-1.97,2.05-3.16c0.55-1.19,0.92-2.51,1.1-3.96
				c0.15-1.23,0.16-2.44,0.03-3.62c-0.13-1.19-0.42-2.31-0.85-3.36s-1-2.02-1.7-2.9c-0.7-0.88-1.53-1.62-2.49-2.2
				c-2.09-1.26-4.69-2.08-7.79-2.46c-0.61-0.08-1.43-0.15-2.43-0.21c-1.01-0.06-1.99-0.11-2.96-0.13c-0.21,1.19-0.38,2.18-0.51,2.98
				c-0.13,0.8-0.23,1.51-0.31,2.14c-0.08,0.63-0.15,1.22-0.22,1.77c-0.07,0.55-0.15,1.18-0.23,1.89L487.94,890.52z"/>
			<path d="M517.61,905.74c0.99-0.14,1.79-0.29,2.4-0.47c0.61-0.17,1.09-0.41,1.45-0.72c0.36-0.3,0.64-0.7,0.83-1.19
				c0.19-0.49,0.36-1.11,0.5-1.85c0.04-0.34,0.09-0.87,0.14-1.6c0.06-0.73,0.11-1.55,0.16-2.48c0.05-0.93,0.1-1.93,0.15-2.99
				c0.05-1.07,0.08-2.11,0.1-3.13l0.01-0.6c0.02-0.93,0.03-2.03,0.04-3.3c0.01-1.27,0-2.52-0.03-3.74c-0.03-1.22-0.06-2.35-0.1-3.37
				c-0.04-1.02-0.11-1.75-0.19-2.19c-0.23-1.21-0.73-2.03-1.51-2.44c-0.78-0.42-1.88-0.7-3.31-0.85l0.02-0.98
				c0.59,0.01,1.25,0.04,2,0.08c0.74,0.04,1.48,0.1,2.23,0.16c0.74,0.06,1.45,0.11,2.11,0.15c0.66,0.04,1.23,0.07,1.69,0.08
				c0.46,0.01,1.21,0.02,2.25,0.04c1.04,0.02,2.21,0.03,3.53,0.04c1.32,0.01,2.71,0.01,4.18,0c1.47,0,2.89,0,4.27,0.01
				c1.38,0.01,2.64,0.01,3.79,0c1.14-0.01,2.06-0.02,2.74-0.04c-0.01,0.4-0.03,0.93-0.07,1.58c-0.04,0.65-0.07,1.08-0.07,1.3
				l-0.01,0.7c-0.01,0.59,0,1.15,0.02,1.7s0.07,1.14,0.15,1.79l-0.98-0.02c-0.08-0.87-0.24-1.55-0.5-2.05
				c-0.25-0.5-0.79-0.89-1.6-1.17c-0.82-0.28-2-0.46-3.54-0.55c-1.55-0.09-3.67-0.16-6.36-0.21c-1.21-0.02-2.23-0.02-3.07,0.01
				s-1.63,0.1-2.37,0.21c-0.05,0.93-0.1,1.87-0.14,2.83c-0.05,0.96-0.09,1.89-0.12,2.78c-0.03,0.9-0.06,1.73-0.09,2.51
				c-0.03,0.77-0.05,1.44-0.06,2c0.74,0.04,1.53,0.09,2.37,0.13c0.84,0.05,1.66,0.08,2.48,0.11c0.82,0.03,1.59,0.06,2.3,0.09
				c0.71,0.03,1.32,0.05,1.81,0.06c1.67,0.03,2.98,0.03,3.92,0c0.94-0.03,1.66-0.15,2.14-0.36c0.48-0.21,0.81-0.53,0.99-0.98
				c0.18-0.45,0.34-1.07,0.47-1.87l0.98,0.02c-0.04,0.37-0.08,0.82-0.12,1.34c-0.04,0.53-0.07,1.04-0.1,1.55
				c-0.03,0.51-0.05,0.97-0.07,1.37c-0.02,0.4-0.04,0.68-0.04,0.84c0,0.19,0,0.46,0.01,0.81c0.01,0.36,0.02,0.77,0.02,1.25
				c0.01,0.48,0.02,0.98,0.04,1.51c0.02,0.53,0.04,1.04,0.07,1.53l-0.97-0.02c-0.14-0.75-0.26-1.33-0.36-1.75
				c-0.1-0.42-0.27-0.75-0.52-1.01c-0.37-0.38-1.05-0.61-2.05-0.71c-1-0.1-2.48-0.16-4.43-0.2c-0.43-0.01-1.01-0.02-1.74-0.03
				c-0.73-0.01-1.52-0.02-2.37-0.02c-0.85,0-1.71,0.01-2.58,0.02c-0.87,0.02-1.64,0.03-2.32,0.05c-0.01,0.62-0.02,1.39-0.02,2.32
				c0,0.93,0,1.91-0.01,2.95c0,1.04,0,2.08,0.01,3.14c0.01,1.05,0.03,2.01,0.04,2.88c1.76,0.28,3.38,0.48,4.87,0.6
				c1.48,0.12,3.06,0.19,4.73,0.22c2.04,0.04,3.75-0.02,5.13-0.16c1.38-0.15,2.32-0.48,2.83-0.99c0.28-0.27,0.48-0.63,0.58-1.08
				c0.1-0.45,0.19-0.93,0.26-1.46l0.98,0.02c-0.09,1.3-0.16,2.61-0.21,3.94c-0.05,1.33-0.09,2.45-0.11,3.34
				c-1.08-0.08-2.39-0.16-3.92-0.23c-1.53-0.07-3.18-0.15-4.94-0.23c-1.76-0.08-3.6-0.14-5.5-0.19c-1.9-0.05-3.75-0.09-5.55-0.12
				c-2.29-0.04-4.18-0.04-5.67,0.02c-1.49,0.05-2.85,0.13-4.09,0.23L517.61,905.74z"/>
			<path d="M558.25,897.98c0.25,0.79,0.54,1.43,0.87,1.94c0.33,0.5,0.78,0.95,1.34,1.34c0.89,0.64,2.04,1.12,3.46,1.43
				c1.42,0.31,2.97,0.4,4.63,0.27c2.72-0.21,4.8-0.9,6.24-2.07c1.45-1.17,2.1-2.63,1.96-4.39c-0.08-1.02-0.46-1.83-1.14-2.43
				c-0.68-0.6-1.83-1.12-3.45-1.55l-8.13-2.12c-4.91-1.3-7.52-3.92-7.83-7.87c-0.23-2.99,0.69-5.41,2.77-7.25
				c2.08-1.84,5.15-2.92,9.23-3.23c0.8-0.06,1.55-0.1,2.25-0.11c0.7-0.01,1.41,0.02,2.13,0.07c0.72,0.05,1.49,0.15,2.3,0.29
				c0.82,0.14,1.75,0.32,2.79,0.55c0.08,1.05,0.17,2.13,0.27,3.24c0.1,1.11,0.22,2.2,0.37,3.28l-0.93,0.07
				c-0.45-1.46-1.37-2.45-2.75-3c-1.38-0.54-3.32-0.72-5.82-0.53c-2.62,0.2-4.63,0.81-6.03,1.82c-1.4,1.01-2.03,2.32-1.91,3.92
				c0.04,0.53,0.15,0.98,0.32,1.35c0.17,0.38,0.44,0.72,0.82,1.03c0.38,0.31,0.9,0.59,1.56,0.83c0.65,0.24,1.49,0.5,2.5,0.76
				l8.56,2.22c0.82,0.22,1.61,0.5,2.35,0.87c0.74,0.36,1.36,0.76,1.86,1.18c1.59,1.34,2.49,3.22,2.68,5.66
				c0.11,1.39-0.11,2.73-0.64,4.01c-0.54,1.28-1.35,2.45-2.45,3.5c-2.23,2.1-5.32,3.3-9.27,3.61c-2.13,0.17-4.06,0.14-5.78-0.06
				c-1.72-0.21-3.52-0.67-5.37-1.4c-0.15-1.91-0.38-4.3-0.7-7.17L558.25,897.98z"/>
			<path d="M593.6,897.57c0.86-0.12,1.6,0.06,2.24,0.55c0.63,0.49,1.01,1.16,1.13,2.02c0.12,0.83-0.06,1.56-0.53,2.21
				c-0.47,0.65-1.14,1.03-1.99,1.15c-0.86,0.12-1.62-0.06-2.28-0.54c-0.66-0.48-1.05-1.14-1.17-1.97c-0.12-0.86,0.07-1.61,0.57-2.26
				C592.06,898.08,592.74,897.69,593.6,897.57z"/>
			<path d="M605.92,892.6c0.35,0.75,0.72,1.35,1.11,1.81c0.39,0.46,0.89,0.84,1.5,1.16c0.96,0.53,2.17,0.85,3.62,0.97
				c1.45,0.12,2.99,0.01,4.63-0.33c2.67-0.56,4.64-1.51,5.93-2.85c1.28-1.34,1.75-2.88,1.38-4.61c-0.21-1-0.69-1.75-1.45-2.26
				c-0.75-0.51-1.96-0.87-3.62-1.09l-8.33-1.05c-5.04-0.65-7.97-2.92-8.78-6.8c-0.61-2.94-0.01-5.45,1.81-7.54
				c1.82-2.09,4.74-3.55,8.73-4.39c0.79-0.16,1.53-0.3,2.22-0.39c0.69-0.1,1.4-0.17,2.12-0.21c0.72-0.04,1.49-0.04,2.32-0.01
				c0.83,0.03,1.78,0.1,2.84,0.19c0.22,1.03,0.44,2.09,0.69,3.18c0.24,1.09,0.51,2.16,0.79,3.2l-0.91,0.19
				c-0.64-1.39-1.67-2.26-3.11-2.62c-1.44-0.36-3.38-0.29-5.84,0.23c-2.58,0.54-4.49,1.4-5.75,2.58c-1.26,1.18-1.72,2.56-1.39,4.13
				c0.11,0.52,0.27,0.95,0.48,1.3c0.22,0.35,0.53,0.66,0.95,0.92c0.42,0.26,0.97,0.47,1.65,0.63c0.68,0.16,1.54,0.3,2.58,0.43
				l8.77,1.11c0.84,0.11,1.66,0.29,2.44,0.56c0.78,0.26,1.45,0.57,2,0.93c1.75,1.12,2.88,2.88,3.38,5.27
				c0.29,1.36,0.24,2.72-0.12,4.06c-0.37,1.34-1.03,2.6-1.98,3.78c-1.94,2.37-4.85,3.96-8.73,4.77c-2.09,0.44-4.01,0.66-5.74,0.68
				c-1.74,0.02-3.57-0.22-5.51-0.7c-0.39-1.88-0.93-4.22-1.61-7.02L605.92,892.6z"/>
			<path d="M662.97,878.26c0.29,1.14,0.6,2.34,0.96,3.59c0.35,1.25,0.67,2.32,0.94,3.21c-1.07,0.75-2,1.38-2.8,1.88
				c-0.8,0.51-1.53,0.94-2.2,1.31s-1.28,0.67-1.86,0.91c-0.57,0.24-1.17,0.46-1.79,0.65c-2.63,0.81-5.16,1.15-7.58,1.02
				c-2.42-0.13-4.64-0.69-6.66-1.67c-2.02-0.98-3.78-2.36-5.28-4.14c-1.5-1.77-2.63-3.9-3.4-6.39c-1.4-4.56-0.9-9,1.49-13.33
				c1.06-1.91,2.56-3.61,4.48-5.09c1.93-1.48,4.09-2.59,6.48-3.33c1.24-0.38,2.64-0.72,4.2-1.02c1.56-0.3,3.16-0.51,4.81-0.63
				c0.32,1.04,0.68,2.12,1.08,3.26c0.4,1.14,0.81,2.29,1.23,3.46l-0.93,0.29c-0.97-1.36-2.11-2.18-3.44-2.49
				c-1.33-0.31-3.04-0.14-5.14,0.51c-2.07,0.64-3.77,1.47-5.11,2.51c-1.33,1.04-2.44,2.39-3.32,4.06c-1.68,3.3-1.96,6.76-0.85,10.37
				c0.59,1.92,1.46,3.58,2.6,4.98c1.14,1.4,2.47,2.5,3.98,3.3c1.51,0.8,3.16,1.28,4.96,1.44c1.8,0.16,3.64-0.05,5.54-0.63
				c4.38-1.34,6.6-3.92,6.66-7.73L662.97,878.26z"/>
			<path d="M671.57,882.86c0.65-0.38,1.22-0.76,1.71-1.11c0.49-0.36,0.88-0.76,1.17-1.21c0.29-0.45,0.46-0.98,0.5-1.59
				c0.04-0.61-0.08-1.37-0.36-2.25c-0.22-0.65-0.49-1.45-0.82-2.42c-0.33-0.97-0.67-1.96-1.04-2.98c-0.37-1.02-0.72-1.99-1.06-2.92
				c-0.35-0.93-0.63-1.68-0.86-2.26c-0.57-1.47-1.13-2.86-1.67-4.16c-0.54-1.3-1.05-2.46-1.54-3.49c-0.48-1.02-0.91-1.89-1.28-2.59
				c-0.37-0.7-0.67-1.17-0.9-1.42c-0.55-0.55-1.16-0.85-1.82-0.91c-0.67-0.05-1.69,0.08-3.05,0.42l-0.35-0.91
				c1.23-0.41,2.51-0.84,3.84-1.27c1.33-0.43,2.38-0.8,3.16-1.11c0.75-0.29,1.73-0.72,2.94-1.27c1.21-0.55,2.5-1.13,3.86-1.73
				l0.35,0.91c-0.76,0.43-1.37,0.82-1.81,1.18c-0.44,0.36-0.77,0.71-0.98,1.06c-0.21,0.35-0.32,0.72-0.33,1.13
				c-0.01,0.4,0.05,0.85,0.17,1.33c0.16,0.67,0.41,1.49,0.74,2.48c0.33,0.98,0.69,2.01,1.08,3.09c0.39,1.08,0.78,2.14,1.19,3.18
				c0.41,1.04,0.76,1.95,1.06,2.73l0.57,1.47c0.74,1.9,1.36,3.46,1.84,4.66c0.49,1.21,0.9,2.17,1.25,2.9
				c0.35,0.73,0.65,1.28,0.9,1.67c0.25,0.38,0.51,0.71,0.78,0.97c0.52,0.56,1.17,0.9,1.97,1.03c0.79,0.12,1.9,0.04,3.32-0.25
				l0.35,0.91c-0.81,0.22-1.53,0.41-2.14,0.59c-0.61,0.17-1.2,0.36-1.75,0.56c-0.55,0.2-1.11,0.4-1.68,0.61
				c-0.57,0.21-1.2,0.44-1.89,0.71c-1.38,0.54-2.62,1.06-3.71,1.55c-1.09,0.49-2.21,1.04-3.36,1.66L671.57,882.86z"/>
			<path d="M691.14,875.36c0.83-0.57,1.47-1.07,1.93-1.5c0.46-0.43,0.79-0.86,0.97-1.29c0.19-0.43,0.26-0.91,0.21-1.44
				c-0.05-0.53-0.18-1.15-0.39-1.88c-0.12-0.32-0.32-0.82-0.59-1.49c-0.27-0.68-0.6-1.44-0.97-2.29c-0.37-0.85-0.78-1.76-1.21-2.74
				c-0.44-0.98-0.87-1.92-1.32-2.84l-0.26-0.54c-0.4-0.84-0.89-1.82-1.45-2.96c-0.57-1.14-1.13-2.25-1.7-3.33
				c-0.57-1.08-1.11-2.07-1.61-2.96s-0.88-1.52-1.16-1.87c-0.75-0.98-1.56-1.48-2.45-1.5c-0.89-0.02-2,0.22-3.33,0.73l-0.42-0.88
				c0.53-0.26,1.14-0.53,1.82-0.82c0.68-0.29,1.37-0.58,2.06-0.86c0.69-0.28,1.34-0.55,1.95-0.81c0.61-0.26,1.13-0.49,1.55-0.69
				c0.42-0.2,1.09-0.53,2.03-0.98c0.93-0.45,1.99-0.97,3.17-1.55c1.18-0.58,2.42-1.21,3.74-1.87c1.31-0.66,2.58-1.3,3.82-1.92
				c1.23-0.61,2.36-1.18,3.38-1.7c1.02-0.52,1.83-0.95,2.43-1.27c0.17,0.36,0.39,0.84,0.64,1.44c0.25,0.6,0.43,1,0.52,1.19l0.3,0.63
				c0.26,0.53,0.51,1.03,0.78,1.51c0.26,0.48,0.58,0.99,0.94,1.53l-0.88,0.42c-0.46-0.74-0.91-1.28-1.37-1.61
				c-0.45-0.33-1.11-0.44-1.96-0.32c-0.85,0.12-1.99,0.49-3.41,1.1c-1.42,0.61-3.35,1.51-5.77,2.67c-1.09,0.52-2,0.99-2.73,1.39
				c-0.73,0.4-1.41,0.82-2.02,1.26c0.37,0.85,0.76,1.71,1.14,2.59c0.39,0.88,0.77,1.73,1.14,2.54c0.38,0.82,0.72,1.58,1.05,2.28
				c0.32,0.7,0.6,1.31,0.85,1.81c0.68-0.29,1.41-0.61,2.17-0.94c0.77-0.33,1.52-0.67,2.27-1.02c0.75-0.34,1.44-0.66,2.09-0.95
				c0.65-0.29,1.2-0.55,1.64-0.76c1.51-0.72,2.67-1.31,3.51-1.76c0.83-0.45,1.42-0.88,1.75-1.28c0.34-0.4,0.49-0.84,0.45-1.32
				c-0.04-0.48-0.18-1.11-0.42-1.89l0.88-0.42c0.13,0.35,0.3,0.77,0.5,1.25c0.2,0.49,0.4,0.97,0.61,1.43
				c0.21,0.47,0.39,0.89,0.55,1.25c0.16,0.37,0.27,0.62,0.34,0.76c0.08,0.17,0.2,0.41,0.37,0.72c0.17,0.31,0.36,0.69,0.59,1.11
				c0.22,0.43,0.46,0.87,0.72,1.33c0.26,0.46,0.51,0.91,0.75,1.34l-0.88,0.42c-0.46-0.6-0.83-1.07-1.11-1.4
				c-0.28-0.33-0.58-0.55-0.91-0.67c-0.5-0.17-1.21-0.08-2.15,0.29c-0.94,0.37-2.29,0.97-4.05,1.82c-0.39,0.19-0.91,0.44-1.57,0.76
				c-0.66,0.32-1.36,0.66-2.12,1.05c-0.76,0.38-1.52,0.78-2.29,1.18c-0.77,0.4-1.45,0.77-2.05,1.09c0.27,0.56,0.61,1.25,1.03,2.08
				c0.42,0.83,0.86,1.71,1.32,2.64c0.46,0.93,0.94,1.86,1.42,2.79c0.48,0.94,0.93,1.79,1.33,2.55c1.7-0.54,3.24-1.09,4.62-1.65
				c1.38-0.56,2.82-1.2,4.33-1.93c1.84-0.89,3.35-1.7,4.51-2.45c1.17-0.75,1.86-1.47,2.08-2.16c0.13-0.37,0.14-0.78,0.03-1.22
				c-0.11-0.44-0.25-0.92-0.43-1.42l0.88-0.42c0.51,1.2,1.04,2.41,1.59,3.62c0.55,1.21,1.02,2.22,1.41,3.03
				c-1,0.41-2.21,0.93-3.61,1.55c-1.4,0.62-2.91,1.3-4.52,2.02c-1.61,0.72-3.28,1.49-5,2.3c-1.72,0.81-3.39,1.61-5.01,2.39
				c-2.06,0.99-3.75,1.85-5.05,2.56c-1.31,0.71-2.49,1.4-3.55,2.04L691.14,875.36z"/>
			<path d="M719.74,832.67l2.82,4.53c0.78,1.26,1.59,2.52,2.41,3.78c0.82,1.26,1.6,2.45,2.35,3.57c0.75,1.12,1.45,2.13,2.1,3.02
				c0.65,0.89,1.2,1.62,1.65,2.17c0.49,0.61,0.96,1.07,1.41,1.39c0.45,0.32,0.95,0.51,1.48,0.58c0.53,0.07,1.16,0.01,1.86-0.17
				c0.71-0.18,1.57-0.48,2.59-0.9l0.51,0.83c-0.5,0.24-1.06,0.52-1.66,0.84c-0.6,0.32-1.21,0.64-1.83,0.97
				c-0.62,0.33-1.19,0.65-1.73,0.96c-0.53,0.31-0.97,0.58-1.31,0.79c-0.34,0.21-0.76,0.49-1.27,0.82c-0.5,0.33-1.03,0.69-1.57,1.08
				c-0.54,0.39-1.09,0.79-1.64,1.18c-0.55,0.4-1.05,0.77-1.49,1.12l-0.52-0.83c0.74-0.68,1.31-1.31,1.69-1.9
				c0.38-0.59,0.6-1.19,0.66-1.8c0.05-0.62-0.06-1.28-0.33-1.98c-0.27-0.7-0.7-1.53-1.29-2.48l-11.97-19.24
				c-0.7-0.18-1.49-0.16-2.38,0.09c-0.89,0.24-1.86,0.63-2.9,1.18l-0.52-0.83c0.4-0.18,0.82-0.38,1.26-0.62
				c0.44-0.24,0.85-0.46,1.25-0.67c0.4-0.21,0.73-0.4,1.01-0.57c0.28-0.17,0.45-0.28,0.53-0.33c0.08-0.05,0.25-0.16,0.51-0.32
				c0.26-0.16,0.57-0.37,0.92-0.63c0.35-0.25,0.74-0.53,1.15-0.83c0.42-0.3,0.82-0.6,1.21-0.92l30.52,10.39
				c-0.55-0.89-1.28-2.06-2.17-3.49c-0.89-1.43-1.82-2.91-2.78-4.42c-0.96-1.52-1.88-2.97-2.76-4.35c-0.88-1.38-1.6-2.49-2.14-3.32
				c-0.57-0.85-1.09-1.52-1.59-2.02c-0.49-0.5-1.01-0.82-1.56-0.97c-0.55-0.15-1.16-0.14-1.83,0.05c-0.67,0.18-1.47,0.52-2.4,1.03
				l-0.52-0.83c0.86-0.43,1.84-0.95,2.93-1.58c1.09-0.62,2.11-1.23,3.05-1.82c0.92-0.57,1.91-1.22,2.98-1.94
				c1.07-0.72,1.97-1.36,2.71-1.93l0.56,0.91c-0.81,0.69-1.39,1.28-1.73,1.79c-0.34,0.5-0.53,1-0.55,1.49
				c-0.05,0.39-0.01,0.81,0.12,1.24c0.12,0.43,0.36,0.96,0.71,1.58c0.37,0.65,0.84,1.48,1.42,2.51c0.58,1.02,1.26,2.19,2.03,3.49
				c0.77,1.31,1.63,2.73,2.56,4.29c0.93,1.55,1.93,3.19,2.99,4.89l5.98,9.62l-1.54,0.96L719.74,832.67z"/>
			<path d="M781.22,811.19c0.67,0.97,1.4,1.97,2.17,3.02c0.78,1.04,1.45,1.93,2.02,2.67c-0.73,1.08-1.38,2-1.95,2.75
				c-0.57,0.76-1.1,1.42-1.59,2c-0.49,0.58-0.96,1.08-1.41,1.51c-0.45,0.43-0.93,0.84-1.44,1.24c-2.17,1.69-4.42,2.91-6.72,3.65
				c-2.31,0.74-4.58,1.01-6.82,0.81c-2.24-0.2-4.37-0.86-6.4-1.99c-2.03-1.12-3.85-2.71-5.45-4.76c-2.93-3.76-4.05-8.09-3.35-12.99
				c0.31-2.17,1.11-4.29,2.38-6.36c1.27-2.07,2.9-3.88,4.88-5.42c1.02-0.8,2.21-1.62,3.56-2.45c1.35-0.84,2.77-1.6,4.27-2.3
				c0.67,0.85,1.39,1.74,2.17,2.67c0.78,0.92,1.57,1.86,2.38,2.79l-0.77,0.6c-1.39-0.92-2.75-1.29-4.1-1.1
				c-1.35,0.19-2.89,0.95-4.62,2.3c-1.71,1.33-3,2.72-3.88,4.17c-0.87,1.45-1.43,3.1-1.66,4.97c-0.39,3.68,0.57,7.01,2.9,9.99
				c1.24,1.59,2.64,2.83,4.2,3.73c1.57,0.9,3.19,1.46,4.89,1.67c1.69,0.21,3.41,0.07,5.15-0.42c1.74-0.49,3.39-1.34,4.95-2.56
				c3.61-2.82,4.77-6.01,3.47-9.59L781.22,811.19z"/>
			<path d="M791.37,812.36c0.61-0.79,1.07-1.47,1.38-2.02c0.31-0.55,0.49-1.06,0.53-1.53c0.05-0.47-0.04-0.95-0.24-1.43
				c-0.21-0.49-0.52-1.04-0.94-1.67c-0.21-0.27-0.55-0.68-1.02-1.24c-0.47-0.56-1.01-1.19-1.63-1.88c-0.62-0.69-1.28-1.44-2-2.24
				c-0.71-0.8-1.42-1.56-2.12-2.31l-0.42-0.44c-0.64-0.67-1.4-1.47-2.29-2.38c-0.89-0.91-1.77-1.79-2.64-2.65
				c-0.88-0.85-1.69-1.63-2.44-2.33c-0.75-0.7-1.3-1.17-1.67-1.42c-1.01-0.7-1.94-0.93-2.79-0.68c-0.85,0.25-1.83,0.82-2.95,1.71
				l-0.67-0.71c0.43-0.4,0.92-0.85,1.48-1.34c0.56-0.49,1.12-0.97,1.7-1.45c0.57-0.48,1.11-0.93,1.61-1.37
				c0.5-0.44,0.92-0.81,1.26-1.13c0.34-0.32,0.88-0.84,1.63-1.55c0.75-0.71,1.6-1.53,2.54-2.45c0.94-0.92,1.94-1.89,2.98-2.93
				c1.05-1.03,2.06-2.03,3.05-2.99c0.99-0.96,1.89-1.84,2.7-2.66c0.81-0.81,1.45-1.46,1.92-1.95c0.28,0.29,0.63,0.68,1.05,1.18
				c0.43,0.49,0.71,0.82,0.86,0.98l0.48,0.5c0.4,0.43,0.8,0.83,1.2,1.2c0.4,0.37,0.85,0.76,1.37,1.17l-0.71,0.67
				c-0.66-0.56-1.26-0.94-1.79-1.11c-0.53-0.18-1.19-0.08-1.96,0.29c-0.78,0.37-1.75,1.07-2.91,2.09c-1.17,1.02-2.72,2.46-4.68,4.31
				c-0.88,0.83-1.6,1.55-2.18,2.16c-0.57,0.61-1.09,1.21-1.54,1.82c0.62,0.69,1.24,1.4,1.88,2.12c0.64,0.72,1.26,1.41,1.87,2.07
				c0.61,0.66,1.17,1.28,1.69,1.85c0.52,0.57,0.97,1.06,1.36,1.46c0.56-0.49,1.15-1.01,1.78-1.56c0.63-0.55,1.24-1.11,1.85-1.66
				c0.61-0.55,1.17-1.07,1.7-1.55c0.53-0.48,0.97-0.89,1.33-1.23c1.21-1.15,2.14-2.07,2.8-2.75c0.65-0.68,1.08-1.27,1.28-1.76
				c0.2-0.49,0.21-0.95,0.02-1.4c-0.18-0.44-0.51-1-0.97-1.67l0.71-0.67c0.23,0.29,0.52,0.64,0.86,1.04c0.34,0.4,0.68,0.8,1.02,1.18
				c0.34,0.38,0.64,0.72,0.91,1.03c0.27,0.3,0.45,0.51,0.56,0.62c0.13,0.13,0.32,0.33,0.58,0.57c0.26,0.25,0.56,0.54,0.9,0.88
				c0.34,0.34,0.71,0.69,1.09,1.05c0.38,0.36,0.76,0.71,1.12,1.05l-0.71,0.67c-0.62-0.43-1.12-0.76-1.49-0.99
				c-0.37-0.23-0.73-0.35-1.08-0.36c-0.52-0.01-1.18,0.3-1.96,0.93c-0.78,0.64-1.88,1.63-3.3,2.97c-0.31,0.3-0.73,0.7-1.26,1.2
				c-0.53,0.5-1.09,1.05-1.7,1.65c-0.61,0.6-1.21,1.21-1.82,1.83c-0.61,0.62-1.15,1.18-1.62,1.67c0.43,0.45,0.96,1,1.62,1.67
				c0.65,0.66,1.34,1.37,2.06,2.11c0.73,0.74,1.46,1.48,2.21,2.23c0.75,0.74,1.43,1.42,2.05,2.02c1.45-1.04,2.75-2.03,3.89-2.99
				c1.14-0.96,2.32-2.01,3.53-3.16c1.48-1.41,2.66-2.65,3.54-3.72c0.88-1.07,1.32-1.97,1.32-2.69c0.01-0.39-0.11-0.79-0.35-1.18
				s-0.52-0.8-0.84-1.22l0.71-0.67c0.85,0.99,1.72,1.97,2.62,2.96c0.89,0.99,1.65,1.81,2.27,2.46c-0.83,0.7-1.81,1.56-2.96,2.58
				c-1.14,1.02-2.37,2.12-3.68,3.3c-1.31,1.18-2.66,2.42-4.06,3.72c-1.39,1.3-2.74,2.57-4.04,3.8c-1.66,1.58-3,2.91-4.03,3.99
				c-1.02,1.08-1.94,2.09-2.76,3.03L791.37,812.36z"/>
			<path d="M814.9,778.33c0.73,0.39,1.39,0.65,1.98,0.77c0.59,0.12,1.22,0.13,1.89,0.02c1.09-0.16,2.24-0.63,3.47-1.41
				c1.23-0.78,2.39-1.8,3.49-3.06c1.79-2.06,2.79-4.01,3-5.85c0.21-1.85-0.35-3.35-1.68-4.51c-0.77-0.67-1.61-0.98-2.52-0.93
				c-0.91,0.05-2.09,0.49-3.55,1.32l-7.28,4.19c-4.41,2.52-8.11,2.48-11.1-0.12c-2.27-1.97-3.3-4.34-3.11-7.11
				c0.19-2.77,1.63-5.69,4.31-8.77c0.53-0.61,1.04-1.16,1.53-1.65c0.49-0.5,1.01-0.98,1.56-1.44c0.55-0.47,1.16-0.94,1.84-1.41
				c0.68-0.48,1.47-1,2.38-1.56c0.79,0.69,1.62,1.4,2.47,2.12c0.85,0.72,1.71,1.41,2.56,2.08l-0.61,0.7
				c-1.34-0.72-2.7-0.79-4.06-0.21c-1.36,0.58-2.87,1.81-4.52,3.7c-1.73,1.98-2.73,3.83-3.02,5.52c-0.29,1.7,0.18,3.08,1.39,4.13
				c0.4,0.35,0.79,0.59,1.17,0.74c0.38,0.15,0.82,0.2,1.31,0.16c0.49-0.04,1.06-0.21,1.69-0.5c0.64-0.28,1.41-0.69,2.32-1.21
				l7.66-4.41c0.74-0.42,1.5-0.77,2.28-1.03c0.78-0.26,1.5-0.42,2.16-0.46c2.07-0.16,4.03,0.55,5.88,2.16
				c1.05,0.91,1.84,2.02,2.35,3.31c0.52,1.29,0.75,2.7,0.7,4.21c-0.12,3.06-1.48,6.08-4.08,9.07c-1.4,1.61-2.79,2.95-4.17,4.01
				c-1.37,1.06-2.98,1.98-4.81,2.77c-1.45-1.26-3.29-2.8-5.52-4.62L814.9,778.33z"/>
		</g>
	</g>
	<g>
		<path class="st0" d="M540.82,525.08c-0.09,0.11-0.17,0.23-0.26,0.34c-0.05-0.24-0.1-0.49-0.15-0.73c0.1,0.06,0.2,0.14,0.28,0.22
			C540.74,524.97,540.78,525.02,540.82,525.08z"/>
	</g>
	<g>
		<path class="st0" d="M540.74,524.97c-0.09,0.11-0.17,0.23-0.26,0.34c0.03-0.18,0.07-0.34,0.12-0.5
			C540.66,524.85,540.7,524.91,540.74,524.97z"/>
	</g>
	<g>
		<path class="st0" d="M540.82,525.08c-0.09,0.11-0.17,0.23-0.26,0.34c-0.05-0.24-0.1-0.49-0.15-0.73c0.1,0.06,0.2,0.14,0.28,0.22
			C540.74,524.97,540.78,525.02,540.82,525.08z"/>
	</g>
	<g>
		<g>
			<path class="st0" d="M371.44,520.13c-2.98,0-4.16-1.35-4.16-4.05V446.1c0-2.7,1.64-4.05,4.16-4.05h31.44
				c2.4,0,3.93,1.35,3.93,4.05v3.81c0,9.54,11.97,37.92,51.2,37.92c24.87,0,35.43-9.64,35.43-24.12c0-20.3-20.39-25.88-50.82-34.32
				c-33.31-9.22-69.86-22.09-69.86-65.17c0-31.85,26.14-57.06,68.58-57.06c26.94,0,44.38,9.4,53.65,22.17l-0.81-16.47
				c-0.17-2.7,1.21-4.05,3.92-4.05h27.22c2.7,0,4.05,1.35,4.05,4.04v66.4c0,2.98-1.64,4.16-4.05,4.16h-31.37
				c-2.41,0-4.05-1.47-4.05-4.16v-5.8c0-13.42-11.18-31.84-42.27-31.84c-25.23,0-35,9.86-35,22.51c0,18.66,20.26,23.4,51.4,33.25
				c37.37,11.77,68.93,24.08,68.93,65.51c0,29.88-21.14,59.32-66.48,59.32c-40.36,0-58.54-20.4-64.23-29.42l0.46,23.31
				c0.04,2.7-1.41,4.05-4.11,4.05L371.44,520.13L371.44,520.13z"/>
		</g>
		<g>
			<path class="st0" d="M543.87,516.08v-24.09c0-2.7,1.35-4.05,4.05-4.05h20.4V341.1h-20.4c-2.41,0-4.05-1.35-4.05-4.05v-24.09
				c0-2.7,1.35-4.05,4.05-4.05h159.66c2.53,0,4.05,1.35,4.05,4.05v56.81c0,2.87-1.35,4.05-4.05,4.05h-29.45
				c-2.7,0-4.05-1.35-4.05-4.05V341.1h-66.64v54.87h55.16c2.82,0,4.17,1.35,4.17,4.05v24.73c0,2.87-1.64,4.05-4.17,4.05h-55.16
				v59.14h67.45v-28.55c0-2.7,1.47-4.05,4.17-4.05h29.45c2.7,0,4.05,1.35,4.05,4.05v56.69c0,2.7-1.64,4.05-4.05,4.05H547.92
				C545.51,520.13,543.87,518.78,543.87,516.08z"/>
		</g>
		<g>
			<path class="st0" d="M361.29,740.9c-2.98,0-4.16-1.35-4.16-4.05v-69.98c0-2.7,1.64-4.05,4.16-4.05h31.44
				c2.4,0,3.93,1.35,3.93,4.05v3.81c0,9.54,11.97,37.92,51.2,37.92c24.87,0,35.43-9.64,35.43-24.12c0-20.3-20.39-25.88-50.82-34.32
				c-33.31-9.22-69.86-22.09-69.86-65.17c0-31.85,26.14-57.06,68.58-57.06c26.94,0,44.38,9.4,53.65,22.17l-0.81-16.47
				c-0.17-2.7,1.21-4.05,3.92-4.05h27.22c2.7,0,4.05,1.35,4.05,4.04v66.4c0,2.98-1.64,4.16-4.05,4.16H483.8
				c-2.41,0-4.05-1.47-4.05-4.16v-5.8c0-13.42-11.18-31.84-42.27-31.84c-25.23,0-35,9.86-35,22.51c0,18.66,20.26,23.4,51.4,33.25
				c37.37,11.77,68.93,24.08,68.93,65.51c0,29.88-21.14,59.32-66.48,59.32c-40.36,0-58.54-20.4-64.23-29.42l0.46,23.31
				c0.04,2.7-1.41,4.05-4.11,4.05L361.29,740.9L361.29,740.9z"/>
		</g>
		<g>
			<path class="st0" d="M723.26,690.3c-3.1,6.32-24.87,52.65-89.29,52.65c-58.94,0-102.44-40.68-102.44-108.84
				c0-69.41,50.13-106.19,98.66-106.19c32.71,0,49.8,13.14,58.14,25.28l-0.64-19.46c-0.19-2.7,1.24-4.05,3.93-4.05h27.92
				c2.69,0,4.04,1.35,4.04,4.05v70.07c0,2.7-1.52,4.16-4.04,4.16l-31.45-0.26c-2.56,0-4.21-1.48-4.21-4.21v-1.74
				c0-16.05-16.6-37.75-49.08-37.75c-34.21,0-61.3,24.73-61.3,70.99c0,45.57,26.51,71.88,61.55,71.88
				c37.46,0,52.23-25.82,57.3-34.92c1.49-2.68,3.49-3.05,5.76-1.49l24.21,13.56C724.56,685.63,724.43,687.78,723.26,690.3z"/>
		</g>
	</g>
	<g>
		<g>
			<path class="st0" d="M479.46,759.99c-0.59,0-0.97-0.31-0.97-0.95v-5.63c0-0.63,0.34-0.95,0.97-0.95h18.54
				c0.63,0,0.95,0.32,0.95,0.95v5.63c0,0.67-0.36,0.95-0.95,0.95h-4.77v23.38c0,12.21-7.64,18.93-18.88,18.93
				c-11.56,0-19.09-6.32-19.09-18.93v-23.38h-4.77c-0.59,0-0.95-0.31-0.95-0.95v-5.63c0-0.63,0.32-0.95,0.95-0.95h18.7
				c0.63,0,0.95,0.32,0.95,0.95v5.63c0,0.67-0.36,0.95-0.95,0.95h-4.77v23.44c0,5.41,2.22,10.27,10.03,10.27
				c6.58,0,9.74-4.2,9.74-10.1v-23.61H479.46z"/>
		</g>
		<g>
			<path class="st0" d="M502.89,800.87v-5.63c0-0.63,0.32-0.95,0.95-0.95h4.77v-34.31h-4.77c-0.56,0-0.95-0.31-0.95-0.95v-5.63
				c0-0.63,0.32-0.95,0.95-0.95h36.46c0.59,0,0.97,0.32,0.97,0.95v13.27c0,0.67-0.34,0.95-0.97,0.95h-6.88
				c-0.63,0-0.95-0.32-0.95-0.95v-6.7h-14.72v14.03h12.68c0.63,0,0.95,0.32,0.95,0.95v5.83c0,0.67-0.38,0.95-0.95,0.95h-12.68v12.55
				h8.36c0.63,0,0.95,0.32,0.95,0.95v5.63c0,0.63-0.36,0.95-0.95,0.95h-22.27C503.27,801.82,502.89,801.5,502.89,800.87z"/>
		</g>
		<g>
			<path class="st0" d="M565.53,752.47h-12.6c-0.52,0-0.85,0.22-0.94,0.65c0.15-0.36,0.51-0.62,0.93-0.62h13.29
				C566,752.48,565.77,752.47,565.53,752.47z"/>
		</g>
		<g>
			<path class="st0" d="M593.94,801.82c-0.7,0-0.97-0.32-0.97-0.95v-16.35c0-0.63,0.38-0.95,0.97-0.95h7.34
				c0.56,0,0.92,0.32,0.92,0.95v0.89c0,2.23,2.8,8.86,11.96,8.86c5.81,0,8.28-2.25,8.28-5.64c0-4.74-4.76-6.05-11.87-8.02
				c-7.78-2.15-16.32-5.16-16.32-15.23c0-7.44,6.11-13.33,16.02-13.33c6.29,0,10.37,2.2,12.54,5.18l-0.19-3.85
				c-0.04-0.63,0.28-0.95,0.91-0.95h6.36c0.63,0,0.95,0.32,0.95,0.94v15.51c0,0.7-0.38,0.97-0.95,0.97h-7.33
				c-0.56,0-0.95-0.34-0.95-0.97v-1.36c0-3.13-2.61-7.44-9.88-7.44c-5.9,0-8.18,2.3-8.18,5.26c0,4.36,4.73,5.47,12.01,7.77
				c8.73,2.75,16.11,5.63,16.11,15.31c0,6.98-4.94,13.86-15.53,13.86c-9.43,0-13.68-4.77-15.01-6.87l0.11,5.45
				c0.01,0.63-0.33,0.95-0.96,0.95L593.94,801.82L593.94,801.82z"/>
		</g>
		<g>
			<path class="st0" d="M589.46,794.3h-4.37l-13.15-34.23h3.28c0.56,0,1.01-0.45,1.01-1.01v-5.56c0-0.56-0.45-1.01-1.01-1.01h-22.3
				c-0.42,0-0.78,0.26-0.93,0.62c-0.02,0.09-0.03,0.19-0.03,0.3v5.63c0,0.63,0.38,0.95,0.97,0.95h4.94l-0.03,0.08l-12.97,34.23
				h-4.44c-0.63,0-0.95,0.32-0.95,0.95v5.63c0,0.63,0.36,0.95,0.95,0.95h17.99c0.59,0,0.97-0.31,0.97-0.95v-5.63
				c0-0.63-0.34-0.95-0.97-0.95h-4.72l2.93-8.04h16.26l2.93,8.04h-4.65c-0.63,0-0.97,0.32-0.97,0.95v5.63
				c0,0.63,0.38,0.95,0.97,0.95h18.29c0.59,0,0.97-0.31,0.97-0.95v-5.63C590.43,794.62,590.09,794.3,589.46,794.3z M559.22,779.5
				l5.3-15.04h0.4l5.5,15.04H559.22z"/>
		</g>
		<g>
			<path class="st0" d="M557.87,759.99l-0.03,0.08h-4.92c-0.56,0-1.01-0.45-1.01-1.01v-5.56c0-0.14,0.03-0.27,0.08-0.39
				c-0.02,0.09-0.03,0.19-0.03,0.3v5.63c0,0.63,0.38,0.95,0.97,0.95H557.87z"/>
		</g>
	</g>
</g>
</svg>
